<svg width="24" height="24" viewBox="0 0 24 24" fill="none" xmlns="http://www.w3.org/2000/svg">
<path d="M14.6702 17.25H9.33017C7.83072 17.25 6.97204 16.7254 6.60596 16.0913C6.23963 15.4567 6.2152 14.4504 6.95992 13.1546C6.96007 13.1543 6.96022 13.1541 6.96037 13.1538L7.69876 11.8766C7.69883 11.8765 7.6989 11.8764 7.69897 11.8762C7.74449 11.7981 7.82699 11.75 7.92017 11.75H16.0802C16.1733 11.75 16.2557 11.7981 16.3013 11.876C16.3014 11.8762 16.3015 11.8764 16.3016 11.8766L17.04 13.1538C17.0401 13.1541 17.0402 13.1543 17.0404 13.1546C17.7851 14.4504 17.7607 15.4567 17.3944 16.0913C17.0283 16.7254 16.1696 17.25 14.6702 17.25Z" fill="#25751E" stroke="#25751E" stroke-width="1.5"/>
<path d="M8.78957 10H15.2196C15.6096 10 15.8496 9.58 15.6496 9.25L15.0096 8.15C13.3596 5.28 10.6396 5.28 8.98957 8.15L8.34957 9.25C8.15957 9.58 8.39957 10 8.78957 10Z" fill="#25751E"/>
</svg>
