<svg width="25" height="24" viewBox="0 0 25 24" fill="none" xmlns="http://www.w3.org/2000/svg">
<path d="M9.66318 6.75H15.0032C16.5026 6.75 17.3613 7.27457 17.7274 7.90872C18.0937 8.5433 18.1181 9.54964 17.3734 10.8454C17.3733 10.8457 17.3731 10.8459 17.373 10.8462L16.6346 12.1234C16.6345 12.1236 16.6344 12.1238 16.6343 12.1239C16.5887 12.2019 16.5063 12.25 16.4132 12.25H8.25318C8.16 12.25 8.07751 12.2019 8.03199 12.1238C8.03191 12.1236 8.03184 12.1235 8.03177 12.1234L7.29338 10.8462C7.29324 10.8459 7.2931 10.8457 7.29295 10.8454C6.54821 9.54964 6.57264 8.5433 6.93897 7.90872C7.30504 7.27457 8.16372 6.75 9.66318 6.75Z" fill="#9A2525" stroke="#9A2525" stroke-width="1.5"/>
<path d="M9.12258 14H15.5526C15.9426 14 16.1826 14.42 15.9826 14.75L15.3426 15.85C13.6926 18.72 10.9726 18.72 9.32258 15.85L8.68258 14.75C8.49258 14.42 8.73258 14 9.12258 14Z" fill="#9A2525"/>
</svg>
