<svg width="12" height="12" viewBox="0 0 12 12" fill="none" xmlns="http://www.w3.org/2000/svg">
<path d="M6.00033 0.166687C2.78616 0.166687 0.166992 2.78585 0.166992 6.00002C0.166992 9.21419 2.78616 11.8334 6.00033 11.8334C9.21449 11.8334 11.8337 9.21419 11.8337 6.00002C11.8337 2.78585 9.21449 0.166687 6.00033 0.166687ZM8.53783 8.08252C8.45616 8.22252 8.31032 8.29835 8.15866 8.29835C8.08283 8.29835 8.00699 8.28085 7.93699 8.23419L6.12866 7.15502C5.67949 6.88669 5.34699 6.29752 5.34699 5.77835V3.38669C5.34699 3.14752 5.54533 2.94919 5.78449 2.94919C6.02366 2.94919 6.22199 3.14752 6.22199 3.38669V5.77835C6.22199 5.98835 6.39699 6.29752 6.57783 6.40252L8.38616 7.48169C8.59616 7.60419 8.66616 7.87252 8.53783 8.08252Z" fill="#DADFDD"/>
</svg>
