<svg width="56" height="57" viewBox="0 0 56 57" fill="none" xmlns="http://www.w3.org/2000/svg">
<circle cx="28" cy="28.5" r="28" fill="#F0F2F5"/>
<path d="M20.9993 25.5833C20.9993 22.0395 23.8722 19.1666 27.416 19.1666C30.5552 19.1666 33.17 21.422 33.7242 24.4011C33.8019 24.8189 34.1006 25.1613 34.5039 25.2951C36.8265 26.0654 38.4994 28.2555 38.4994 30.8333C38.4994 34.055 35.8877 36.6666 32.666 36.6666C32.0217 36.6666 31.4993 37.189 31.4993 37.8333C31.4993 38.4776 32.0217 39 32.666 39C37.1763 39 40.8327 35.3436 40.8327 30.8333C40.8327 27.4588 38.7866 24.5648 35.87 23.3195C34.872 19.5843 31.4664 16.8333 27.416 16.8333C22.5835 16.8333 18.666 20.7508 18.666 25.5833C18.666 25.7003 18.6683 25.8168 18.6729 25.9328C16.5782 27.1413 15.166 29.4046 15.166 32C15.166 35.866 18.3 39 22.166 39C22.8103 39 23.3327 38.4776 23.3327 37.8333C23.3327 37.189 22.8103 36.6666 22.166 36.6666C19.5887 36.6666 17.4993 34.5773 17.4993 32C17.4993 30.0664 18.6756 28.4049 20.3561 27.6969C20.8424 27.4921 21.1307 26.9863 21.0591 26.4635C21.0197 26.1763 20.9993 25.8825 20.9993 25.5833Z" fill="#475367"/>
<path d="M27.2243 31.128C27.6663 30.7351 28.3324 30.7351 28.7744 31.128L30.5244 32.6836C31.006 33.1116 31.0494 33.849 30.6213 34.3306C30.2468 34.7519 29.6356 34.8379 29.166 34.5662V40.1666C29.166 40.811 28.6437 41.3333 27.9993 41.3333C27.355 41.3333 26.8327 40.811 26.8327 40.1666V34.5662C26.3631 34.8379 25.7519 34.7519 25.3774 34.3306C24.9493 33.849 24.9927 33.1116 25.4743 32.6836L27.2243 31.128Z" fill="#475367"/>
</svg>
