<svg width="14" height="14" viewBox="0 0 14 14" fill="none" xmlns="http://www.w3.org/2000/svg">
<path d="M9.33333 1.16669H4.66667C2.625 1.16669 1.75 2.33335 1.75 4.08335V9.91669C1.75 11.6667 2.625 12.8334 4.66667 12.8334H9.33333C11.375 12.8334 12.25 11.6667 12.25 9.91669V4.08335C12.25 2.33335 11.375 1.16669 9.33333 1.16669ZM4.66667 7.14585H7C7.23917 7.14585 7.4375 7.34419 7.4375 7.58335C7.4375 7.82252 7.23917 8.02085 7 8.02085H4.66667C4.4275 8.02085 4.22917 7.82252 4.22917 7.58335C4.22917 7.34419 4.4275 7.14585 4.66667 7.14585ZM9.33333 10.3542H4.66667C4.4275 10.3542 4.22917 10.1559 4.22917 9.91669C4.22917 9.67752 4.4275 9.47919 4.66667 9.47919H9.33333C9.5725 9.47919 9.77083 9.67752 9.77083 9.91669C9.77083 10.1559 9.5725 10.3542 9.33333 10.3542ZM10.7917 5.39585H9.625C8.73833 5.39585 8.02083 4.67835 8.02083 3.79169V2.62502C8.02083 2.38585 8.21917 2.18752 8.45833 2.18752C8.6975 2.18752 8.89583 2.38585 8.89583 2.62502V3.79169C8.89583 4.19419 9.2225 4.52085 9.625 4.52085H10.7917C11.0308 4.52085 11.2292 4.71919 11.2292 4.95835C11.2292 5.19752 11.0308 5.39585 10.7917 5.39585Z" fill="#DADFDD"/>
</svg>
