<svg width="118" height="117" viewBox="0 0 118 117" fill="none" xmlns="http://www.w3.org/2000/svg">
<path d="M108.427 74.4504C107.357 73.4026 105.974 72.135 104.337 72.5885C102.799 73.0139 102.211 74.6927 101.935 76.0926C101.58 77.8981 101.304 79.7178 101.016 81.5346C100.729 83.3514 100.453 85.1963 100.191 87.0413C100.041 88.0779 99.8943 89.1154 99.7515 90.1538C99.6783 90.6721 99.606 91.1904 99.5346 91.7087C99.4642 92.2185 99.3797 92.7283 99.3516 93.241C99.3516 93.4044 99.5994 93.4269 99.6332 93.272C99.8332 92.4072 99.9149 91.5059 100.042 90.6299C100.168 89.7538 100.298 88.8609 100.425 87.9793C100.681 86.2244 100.949 84.4724 101.211 82.7176C101.473 80.9628 101.749 79.2135 102.03 77.4615C102.267 75.9743 102.38 74.1293 103.695 73.1491C104.053 72.9049 104.466 72.7555 104.897 72.7151C105.329 72.6747 105.763 72.7446 106.16 72.9181C107.024 73.2505 107.717 73.8702 108.396 74.4842C108.427 74.5039 108.455 74.4729 108.427 74.4504Z" fill="#263238"/>
<path d="M106.97 73.3802C106.97 73.3802 104.781 72.5944 103.702 74.1886C102.624 75.7829 103.914 79.8447 113.871 82.1347C113.58 79.0224 112.77 75.9807 111.477 73.1352C109.342 68.4791 105.536 70.2424 106.97 73.3802Z" fill="#477C5E"/>
<path d="M113.299 81.4701C113.149 81.1915 112.982 80.9224 112.798 80.6645C112.632 80.4082 112.463 80.1519 112.294 79.8983C112.167 79.7068 112.035 79.5153 111.905 79.335C111.905 79.2899 111.905 79.242 111.922 79.1942L111.956 78.935C111.981 78.7491 112.009 78.5604 112.035 78.3717C112.06 78.183 112.094 78.0027 112.131 77.8083C112.153 77.6091 112.197 77.4127 112.26 77.2224C112.26 77.1914 112.221 77.1774 112.218 77.2224C112.196 77.3354 112.166 77.4465 112.128 77.5548L112.06 77.8055C112.012 77.9942 111.967 78.1829 111.925 78.3689C111.883 78.5548 111.852 78.7209 111.821 78.8956C111.807 78.9829 111.795 79.0674 111.784 79.1519C111.607 78.8984 111.424 78.6477 111.238 78.4027C110.708 77.7069 110.15 77.0365 109.57 76.3802C109.57 76.3802 109.57 76.3802 109.57 76.3633C109.624 75.3183 109.598 74.2817 109.829 73.2649C109.829 73.2367 109.795 73.2198 109.787 73.248C109.524 74.2182 109.399 75.2204 109.415 76.2253C109.21 75.9943 108.998 75.7634 108.787 75.5352C108.3 75.0141 107.807 74.4986 107.303 73.9973C107.283 73.9775 107.249 73.9973 107.269 74.0282C108.114 74.9324 108.905 75.8732 109.683 76.8309C109.075 76.821 108.466 76.8436 107.86 76.8985C107.187 76.9464 106.517 77.0337 105.846 77.1267C105.815 77.1267 105.824 77.1746 105.846 77.1717C106.513 77.0736 107.184 77.0134 107.858 76.9915C108.508 76.9633 109.153 76.9915 109.804 76.9915C110.225 77.5097 110.639 78.0337 111.046 78.5632H110.962C110.809 78.5632 110.657 78.5632 110.505 78.5632C110.201 78.5632 109.9 78.5914 109.598 78.6167C108.979 78.6681 108.365 78.7622 107.759 78.8984C107.753 78.8984 107.747 78.9008 107.743 78.905C107.739 78.9092 107.736 78.915 107.736 78.9209C107.736 78.9269 107.739 78.9326 107.743 78.9369C107.747 78.9411 107.753 78.9435 107.759 78.9435C108.37 78.8731 108.984 78.8167 109.598 78.7942C109.88 78.7942 110.187 78.7942 110.48 78.7942H110.962C111.046 78.8057 111.131 78.798 111.212 78.7716C111.479 79.119 111.746 79.4674 112.012 79.8167C112.224 80.0983 112.432 80.38 112.638 80.6617C112.843 80.9434 113.038 81.2673 113.269 81.5377C113.28 81.518 113.311 81.4926 113.299 81.4701Z" fill="#263238"/>
<path d="M107.922 75.642C107.569 75.5969 107.213 75.58 106.857 75.5913C106.502 75.5913 106.145 75.5913 105.79 75.6138C105.759 75.6138 105.762 75.6589 105.79 75.6589C106.15 75.6307 106.511 75.6251 106.871 75.6307C107.232 75.6363 107.57 75.6701 107.916 75.6589C107.933 75.6589 107.933 75.6448 107.922 75.642Z" fill="#263238"/>
<path d="M111.049 76.4447C111.089 76.1038 111.131 75.763 111.204 75.4278C111.204 75.4218 111.202 75.4161 111.198 75.4119C111.193 75.4076 111.188 75.4053 111.182 75.4053C111.176 75.4053 111.17 75.4076 111.166 75.4119C111.162 75.4161 111.159 75.4218 111.159 75.4278C111.109 75.763 111.044 76.0954 110.996 76.4306C110.97 76.5968 110.948 76.7658 110.925 76.9319C110.897 77.089 110.884 77.2484 110.886 77.408C110.888 77.4143 110.892 77.4198 110.897 77.4237C110.903 77.4276 110.909 77.4297 110.916 77.4297C110.922 77.4297 110.929 77.4276 110.934 77.4237C110.939 77.4198 110.943 77.4143 110.945 77.408C110.975 77.2509 110.992 77.0917 110.996 76.9319C111.01 76.7686 111.03 76.6052 111.049 76.4447Z" fill="#263238"/>
<path d="M110.399 72.6757C110.312 73.0081 110.224 73.3433 110.165 73.6785C110.134 73.8503 110.106 74.0221 110.083 74.194C110.052 74.3601 110.041 74.5293 110.05 74.6982C110.05 74.7019 110.051 74.7055 110.054 74.7081C110.056 74.7108 110.06 74.7122 110.064 74.7122C110.067 74.7122 110.071 74.7108 110.074 74.7081C110.076 74.7055 110.078 74.7019 110.078 74.6982C110.117 74.5411 110.143 74.3809 110.154 74.2193C110.176 74.0531 110.202 73.8898 110.23 73.7236C110.292 73.3771 110.354 73.0335 110.441 72.6926C110.444 72.6645 110.399 72.6476 110.399 72.6757Z" fill="#263238"/>
<path d="M97.4415 92.8722C97.3852 92.2468 97.3232 91.6187 97.2584 90.9934C97.1251 89.754 96.9758 88.5156 96.8106 87.2781C96.6444 86.0472 96.4867 84.8106 96.2867 83.5825C96.2147 83.0082 96.0874 82.4422 95.9064 81.8924C95.842 81.6579 95.7248 81.4413 95.5637 81.2592C95.4025 81.077 95.2018 80.9343 94.9769 80.8418C93.8051 80.439 93.0051 81.653 92.5432 82.5121C92.5291 82.5375 92.5657 82.5572 92.5826 82.5347C92.8643 82.1262 93.6474 80.9855 94.5375 81.039C95.1346 81.0728 95.6135 81.4981 95.9008 82.9882C96.6162 86.7035 97.2613 94.2552 97.3373 94.7368C97.3768 94.9988 97.5598 94.9875 97.5627 94.7059C97.5514 94.1031 97.481 93.4862 97.4415 92.8722Z" fill="#263238"/>
<path d="M92.8437 82.0642C92.8437 82.0642 93.869 78.4475 91.6043 80.2559C87.8355 83.267 87.7031 89.8046 87.7031 89.8046C87.7031 89.8046 94.4014 85.9147 95.2323 83.3486C96.4745 79.5348 92.8437 82.0642 92.8437 82.0642Z" fill="#477C5E"/>
<path d="M94.1125 83.8387C93.5886 83.9457 93.0534 84.0162 92.5239 84.0922L91.769 84.1993C91.6 84.2218 91.4281 84.2387 91.2563 84.2584C91.7549 83.5711 92.2591 82.8867 92.7379 82.1853C92.7424 82.1793 92.7443 82.1718 92.7433 82.1644C92.7422 82.157 92.7383 82.1503 92.7323 82.1458C92.7263 82.1414 92.7188 82.1394 92.7114 82.1405C92.704 82.1416 92.6973 82.1455 92.6929 82.1515C92.2935 82.5611 91.9173 82.9927 91.5662 83.4444L91.2676 82.5993C91.1549 82.2754 91.031 81.9543 90.9493 81.6191C90.9493 81.5909 90.8986 81.6191 90.907 81.6332C90.9972 81.9627 91.062 82.3036 91.1521 82.636C91.2422 82.9683 91.3352 83.2725 91.4479 83.5852C91.2028 83.9035 90.9662 84.2302 90.738 84.5598C90.6225 84.2331 90.4789 83.9176 90.3803 83.5852C90.3803 83.557 90.3268 83.5711 90.3352 83.5852C90.4564 83.9542 90.5211 84.3345 90.6338 84.7119C90.4789 84.9372 90.3268 85.1626 90.1803 85.3879C89.8986 85.8076 89.6536 86.233 89.4057 86.6611C89.3863 86.6694 89.37 86.6838 89.3594 86.702C89.3487 86.7203 89.3442 86.7415 89.3466 86.7625C88.924 87.4949 88.5212 88.2357 88.1241 88.9849C88.1211 88.9901 88.1203 88.9964 88.1219 89.0022C88.1235 89.008 88.1273 89.0129 88.1325 89.0159C88.1378 89.0189 88.144 89.0197 88.1498 89.0181C88.1556 89.0165 88.1605 89.0127 88.1635 89.0075C88.5607 88.2667 89.0085 87.5456 89.462 86.8386C89.5332 86.8151 89.607 86.8009 89.6818 86.7963L89.9127 86.7456C90.0845 86.709 90.2564 86.6639 90.4282 86.6217C90.769 86.5372 91.1042 86.4555 91.4507 86.3963C91.4788 86.3963 91.4648 86.3484 91.4507 86.3541C91.0451 86.4301 90.6394 86.478 90.2282 86.5231C90.0338 86.5456 89.8423 86.571 89.6508 86.6019H89.6226C89.8611 86.2376 90.1052 85.8752 90.355 85.5147C90.5972 85.1626 90.8479 84.8133 91.0986 84.464C91.3324 84.433 91.5605 84.3711 91.7915 84.3288L92.5689 84.1767C93.0872 84.0725 93.6055 83.957 94.1266 83.8725C94.1548 83.8894 94.1407 83.8331 94.1125 83.8387Z" fill="#263238"/>
<path d="M90.0866 84.1963C90.0556 84.1005 90.0274 84.0047 89.9965 83.9146C89.9336 83.7148 89.8819 83.5117 89.8415 83.3062C89.8415 83.278 89.7937 83.2921 89.7993 83.3062C89.8444 83.5118 89.8922 83.7146 89.9373 83.9174C89.9783 84.122 90.0368 84.3227 90.112 84.5174C90.1167 84.5256 90.124 84.5319 90.1327 84.5355C90.1414 84.5391 90.1511 84.5396 90.1602 84.537C90.1693 84.5344 90.1772 84.5288 90.1828 84.5212C90.1883 84.5136 90.1912 84.5043 90.1908 84.4949C90.1598 84.3991 90.1176 84.2977 90.0866 84.1963Z" fill="#263238"/>
<path d="M94.7973 83.0023C94.4931 83.0474 94.1861 83.0699 93.8763 83.0981C93.5664 83.1263 93.265 83.1657 92.958 83.2136C92.9411 83.2136 92.9411 83.2417 92.958 83.2389C93.265 83.2192 93.572 83.1939 93.8791 83.1544C94.1861 83.115 94.4903 83.0699 94.8001 83.0474C94.8283 83.0446 94.8255 82.9995 94.7973 83.0023Z" fill="#263238"/>
<path d="M102.356 88.2947C102.235 85.6328 102.074 82.9738 101.792 80.3232C101.66 79.0022 101.511 77.684 101.325 76.3798C101.161 75.0875 100.906 73.8083 100.562 72.5518C100.326 71.5749 99.8923 70.6566 99.2884 69.8534C98.99 69.4627 98.5972 69.1542 98.1468 68.9571C97.6964 68.76 97.2033 68.6807 96.7139 68.7267C95.5505 68.8703 94.6098 69.6055 93.7985 70.4026C92.8887 71.2984 92.055 72.2758 91.2127 73.2194C90.9987 73.4616 90.7874 73.7067 90.5762 73.9518C90.5593 73.9743 90.5902 74.0053 90.61 73.9827C91.4353 73.0363 92.3 72.1152 93.1873 71.2364C94.0154 70.4224 94.8773 69.5463 96.004 69.1971C96.5375 69.028 97.1081 69.0143 97.649 69.1576C98.0799 69.2937 98.4681 69.5392 98.7757 69.8703C99.4236 70.5407 99.7841 71.4505 100.043 72.3321C100.759 74.7799 101.015 77.3459 101.28 79.8726C101.545 82.3992 101.733 85.0131 101.863 87.5933C101.992 90.1734 102.094 92.7789 102.345 95.3647C102.376 95.683 102.415 96.0013 102.457 96.3196C102.483 96.5309 102.815 96.5337 102.798 96.3196C102.598 93.6437 102.474 90.9706 102.356 88.2947Z" fill="#263238"/>
<path d="M93.658 70.6846C93.658 70.6846 95.1791 67.8679 93.3764 66.9665C91.5736 66.0652 85.5683 72.7747 83.8135 82.5882C83.8135 82.5882 93.5228 78.2927 96.8212 74.0112C100.12 69.7298 96.3847 68.789 93.658 70.6846Z" fill="#477C5E"/>
<path d="M95.0867 72.972C93.9966 72.972 92.9065 72.8903 91.8164 72.8959L92.4305 72.1945C92.7338 71.8831 93.0161 71.5518 93.2755 71.203C93.2896 71.1805 93.2586 71.1495 93.2361 71.1664C92.9396 71.4202 92.6636 71.6971 92.4108 71.9945C92.1291 72.2762 91.8643 72.5748 91.5939 72.8677C91.177 73.3212 90.7686 73.7775 90.3602 74.2395C90.3602 74.1944 90.3602 74.1494 90.3602 74.1071C90.3602 73.9156 90.3602 73.724 90.3602 73.5438C90.3602 73.1748 90.3602 72.8029 90.3602 72.434C90.3602 71.6847 90.3602 70.9298 90.4165 70.1805C90.4165 70.1524 90.3743 70.1524 90.3715 70.1805C90.3207 70.9354 90.2419 71.6847 90.2053 72.434C90.1884 72.8058 90.1799 73.1748 90.1743 73.5466C90.1743 73.7353 90.1743 73.9268 90.1743 74.1099C90.1743 74.2141 90.1743 74.324 90.1743 74.431C90.1123 74.5043 90.0447 74.5747 89.9827 74.6451C89.1124 75.6422 88.2927 76.6704 87.4758 77.7182C87.4758 77.6619 87.4758 77.5999 87.4617 77.5436C87.4617 77.4281 87.4364 77.3126 87.4251 77.1971C87.397 76.9464 87.3632 76.6985 87.3237 76.4478C87.2843 76.1971 87.2533 75.9803 87.2139 75.7465C87.1744 75.5127 87.104 75.2197 87.0843 74.955C87.0856 74.9515 87.086 74.9479 87.0855 74.9443C87.0851 74.9407 87.0837 74.9372 87.0817 74.9342C87.0796 74.9313 87.0768 74.9288 87.0736 74.9271C87.0704 74.9255 87.0668 74.9246 87.0632 74.9246C87.0595 74.9246 87.056 74.9255 87.0527 74.9271C87.0495 74.9288 87.0468 74.9313 87.0447 74.9342C87.0426 74.9372 87.0413 74.9407 87.0408 74.9443C87.0404 74.9479 87.0408 74.9515 87.042 74.955C87.0861 75.2198 87.1162 75.4869 87.1322 75.7549L87.1998 76.476C87.2195 76.7154 87.242 76.9548 87.2674 77.1971L87.3012 77.5436C87.3012 77.5999 87.3153 77.659 87.3237 77.7154C87.3264 77.7645 87.342 77.8121 87.3688 77.8534L86.9547 78.3942C86.3914 79.1237 85.8618 79.8617 85.321 80.5969C85.3041 80.6194 85.3379 80.6504 85.3548 80.6279C85.8675 79.9603 86.3942 79.304 86.9266 78.6562C87.3265 78.6731 87.735 78.6421 88.1349 78.6365C88.5349 78.6308 88.98 78.6365 89.3969 78.6365C89.4028 78.6365 89.4086 78.6341 89.4128 78.6299C89.417 78.6256 89.4194 78.6199 89.4194 78.6139C89.4194 78.6079 89.417 78.6022 89.4128 78.598C89.4086 78.5938 89.4028 78.5914 89.3969 78.5914C88.9743 78.5914 88.5518 78.6055 88.1321 78.6083C87.7124 78.6111 87.3575 78.5914 86.9744 78.6083C87.442 78.0449 87.9181 77.4816 88.3828 76.9042L88.9349 76.2845C89.0964 76.3056 89.2596 76.3113 89.4222 76.3014H89.9856C90.3433 76.3014 90.701 76.3014 91.0616 76.2873C91.8024 76.2873 92.5432 76.2507 93.284 76.2478C93.2874 76.2491 93.291 76.2495 93.2947 76.2491C93.2983 76.2486 93.3017 76.2473 93.3047 76.2452C93.3077 76.2431 93.3101 76.2404 93.3118 76.2372C93.3135 76.2339 93.3144 76.2304 93.3144 76.2267C93.3144 76.2231 93.3135 76.2195 93.3118 76.2163C93.3101 76.2131 93.3077 76.2103 93.3047 76.2082C93.3017 76.2061 93.2983 76.2048 93.2947 76.2044C93.291 76.2039 93.2874 76.2043 93.284 76.2056C92.5404 76.2056 91.7995 76.1633 91.0587 76.1436C90.6982 76.1436 90.3405 76.1239 89.9799 76.1183H89.4166C89.3095 76.1183 89.1969 76.1183 89.0842 76.1183L90.3095 74.6676C90.319 74.6612 90.3268 74.6525 90.332 74.6423C90.7292 74.1719 91.1263 73.7043 91.5291 73.2339C91.5855 73.172 91.6418 73.11 91.6953 73.0452C92.822 73.079 93.9487 73.0058 95.0754 73.0283C95.1177 73.017 95.1177 72.972 95.0867 72.972Z" fill="#263238"/>
<path d="M94.5286 74.9012H94.2639C94.2586 74.9012 94.2536 74.9033 94.2499 74.907C94.2462 74.9107 94.2441 74.9157 94.2441 74.921C94.2441 74.9262 94.2462 74.9312 94.2499 74.9349C94.2536 74.9386 94.2586 74.9407 94.2639 74.9407H94.5258C94.5295 74.939 94.5326 74.9364 94.535 74.933C94.5373 74.9297 94.5386 74.9258 94.5389 74.9218C94.5392 74.9178 94.5384 74.9137 94.5366 74.9101C94.5348 74.9065 94.532 74.9034 94.5286 74.9012Z" fill="#263238"/>
<path d="M93.9384 74.9038C93.5891 74.9038 93.2398 74.9038 92.8905 74.8813L92.3694 74.8757C92.2076 74.8559 92.044 74.8559 91.8821 74.8757C91.8777 74.8757 91.8734 74.8774 91.8702 74.8806C91.867 74.8838 91.8652 74.8881 91.8652 74.8926C91.8652 74.897 91.867 74.9013 91.8702 74.9045C91.8734 74.9077 91.8777 74.9095 91.8821 74.9095C92.0434 74.9419 92.2081 74.9533 92.3723 74.9433H92.8962H93.944C93.9694 74.9489 93.9694 74.9038 93.9384 74.9038Z" fill="#263238"/>
<path d="M90.8894 78.1829C90.179 78.0633 89.4605 77.9984 88.7402 77.9885V78.0026C89.4557 78.0702 90.1683 78.1097 90.8782 78.2251C90.9063 78.2308 90.9176 78.1857 90.8894 78.1829Z" fill="#263238"/>
<path d="M87.9679 75.0562C87.9679 74.9942 87.9538 74.9322 87.9454 74.8703C87.9285 74.7294 87.9059 74.5886 87.8834 74.4506C87.8412 74.183 87.7961 73.9182 87.7454 73.6506C87.7454 73.6281 87.6975 73.6337 87.7003 73.6506C87.7341 73.9323 87.7651 74.1999 87.7904 74.4759L87.8242 74.8815C87.8205 75.0113 87.8386 75.1408 87.8778 75.2646C87.8834 75.2731 87.8913 75.2797 87.9006 75.2839C87.9098 75.288 87.9201 75.2894 87.9301 75.2879C87.9402 75.2864 87.9496 75.2821 87.9573 75.2755C87.9649 75.2689 87.9706 75.2602 87.9735 75.2505C87.9833 75.1859 87.9814 75.1201 87.9679 75.0562Z" fill="#263238"/>
<path d="M102.26 67.0702C101.911 66.4224 101.468 65.5689 100.601 65.6224C99.8854 65.6675 99.5615 66.397 99.4094 67.0026C98.9361 68.8701 98.9023 70.8418 98.8122 72.7572C98.615 76.8049 98.4404 80.8554 98.415 84.9087C98.415 86.0354 98.415 87.1621 98.415 88.2888C98.415 89.4352 98.415 90.5873 98.4939 91.7309C98.4939 91.7533 98.5028 91.7748 98.5187 91.7906C98.5345 91.8065 98.556 91.8154 98.5784 91.8154C98.6008 91.8154 98.6223 91.8065 98.6382 91.7906C98.654 91.7748 98.6629 91.7533 98.6629 91.7309C98.6629 90.7507 98.6348 89.7592 98.6319 88.7902C98.6291 87.8212 98.6319 86.8776 98.6488 85.9199C98.6808 83.9839 98.7324 82.0478 98.8038 80.1118C98.877 78.1879 98.9615 76.2641 99.0432 74.3403C99.0826 73.3797 99.1249 72.4164 99.1671 71.4559C99.2094 70.4954 99.2488 69.594 99.3558 68.6673C99.415 68.1462 99.491 67.6279 99.6009 67.1181C99.6544 66.7378 99.8091 66.3788 100.049 66.0787C100.214 65.9153 100.433 65.8164 100.664 65.7999C100.896 65.7833 101.127 65.8503 101.313 65.9886C101.711 66.2747 102.021 66.6645 102.212 67.1153C102.218 67.1216 102.226 67.1253 102.235 67.1256C102.244 67.1259 102.252 67.1227 102.259 67.1167C102.265 67.1107 102.269 67.1025 102.269 67.0937C102.269 67.085 102.266 67.0766 102.26 67.0702Z" fill="#263238"/>
<path d="M102.025 66.7607C102.025 66.7607 101.312 64.2425 102.889 65.5016C105.514 67.5973 105.607 72.1576 105.607 72.1576C105.607 72.1576 100.94 69.4479 100.36 67.6508C99.4951 64.9974 102.025 66.7607 102.025 66.7607Z" fill="#477C5E"/>
<path d="M104.623 70.29C104.58 70.2196 104.535 70.152 104.49 70.0816C104.496 70.0103 104.496 69.9387 104.49 69.8675C104.49 69.7604 104.49 69.6506 104.49 69.5435C104.49 69.3295 104.49 69.1154 104.513 68.9041C104.513 68.8982 104.51 68.8924 104.506 68.8882C104.502 68.884 104.496 68.8816 104.49 68.8816C104.484 68.8816 104.479 68.884 104.474 68.8882C104.47 68.8924 104.468 68.8982 104.468 68.9041C104.468 69.1126 104.448 69.3238 104.442 69.5323C104.442 69.6365 104.442 69.7407 104.442 69.8449C104.442 69.8844 104.442 69.9323 104.442 69.9801C104.259 69.6985 104.071 69.4168 103.879 69.1351C103.823 69.0534 103.764 68.9746 103.707 68.8957C103.677 68.6225 103.672 68.3472 103.693 68.0732C103.693 67.7915 103.693 67.4873 103.71 67.1944C103.71 67.1662 103.665 67.1662 103.665 67.1944C103.665 67.4986 103.642 67.8028 103.625 68.107C103.607 68.3234 103.602 68.5406 103.609 68.7577C103.158 68.1464 102.679 67.5549 102.2 66.9662C102.183 66.9465 102.15 66.9662 102.166 66.9944C102.465 67.3746 102.752 67.7634 103.034 68.1577C102.485 68.0281 101.927 67.9549 101.369 67.876C101.341 67.876 101.33 67.9155 101.369 67.9211C101.961 68.0112 102.541 68.1577 103.124 68.2873C103.347 68.6027 103.569 68.9182 103.786 69.2365L104.051 69.6252H104.028L103.845 69.5999L103.456 69.5661C103.189 69.5435 102.918 69.5295 102.648 69.5154C102.62 69.5154 102.623 69.5604 102.648 69.5604C102.913 69.5604 103.178 69.5858 103.44 69.614L103.859 69.6647L104.04 69.6872H104.093C104.242 69.9069 104.394 70.1266 104.541 70.3463C104.806 70.7379 105.042 71.1547 105.321 71.5294C105.325 71.5325 105.329 71.5344 105.334 71.5348C105.339 71.5352 105.344 71.534 105.348 71.5315C105.352 71.529 105.355 71.5253 105.357 71.5208C105.359 71.5164 105.359 71.5115 105.358 71.5068C105.137 71.0868 104.892 70.6805 104.623 70.29Z" fill="#263238"/>
<path d="M103.464 67.4448C103.464 67.3462 103.464 67.2477 103.464 67.1491C103.459 66.9431 103.467 66.737 103.49 66.5322C103.491 66.5288 103.491 66.5251 103.491 66.5215C103.49 66.5179 103.489 66.5145 103.487 66.5115C103.485 66.5085 103.482 66.5061 103.479 66.5044C103.476 66.5027 103.472 66.5018 103.468 66.5018C103.465 66.5018 103.461 66.5027 103.458 66.5044C103.455 66.5061 103.452 66.5085 103.45 66.5115C103.448 66.5145 103.447 66.5179 103.446 66.5215C103.446 66.5251 103.446 66.5288 103.447 66.5322C103.447 66.7378 103.425 66.9406 103.414 67.1434C103.414 67.2477 103.414 67.3491 103.414 67.4505V67.5913C103.406 67.6399 103.406 67.6892 103.414 67.7378C103.414 67.743 103.416 67.748 103.419 67.7517C103.423 67.7554 103.428 67.7575 103.433 67.7575C103.438 67.7575 103.443 67.7554 103.447 67.7517C103.451 67.748 103.453 67.743 103.453 67.7378C103.46 67.693 103.46 67.6474 103.453 67.6026L103.464 67.4448Z" fill="#263238"/>
<path d="M102.885 68.4873C102.71 68.4563 102.533 68.4479 102.358 68.4338C102.184 68.4197 101.975 68.4 101.795 68.3746C101.789 68.3746 101.783 68.377 101.779 68.3812C101.775 68.3855 101.772 68.3912 101.772 68.3972C101.772 68.4031 101.775 68.4089 101.779 68.4131C101.783 68.4173 101.789 68.4197 101.795 68.4197C102.164 68.4422 102.53 68.5098 102.899 68.5211C102.902 68.5239 102.905 68.4901 102.885 68.4873Z" fill="#263238"/>
<path d="M104.351 68.5011C104.365 68.5209 104.351 68.5772 104.351 68.5997V68.856C104.351 68.9152 104.351 68.9744 104.351 69.0335C104.341 69.0837 104.341 69.1354 104.351 69.1856C104.351 69.1856 104.365 69.1856 104.368 69.1856C104.374 69.1615 104.374 69.1365 104.368 69.1124C104.367 69.0852 104.367 69.0579 104.368 69.0307V68.856C104.368 68.7969 104.368 68.7377 104.368 68.6786V68.5997C104.368 68.5744 104.368 68.5209 104.368 68.5011C104.368 68.4814 104.323 68.4589 104.351 68.5011Z" fill="#263238"/>
<path d="M102.367 80.5093C101.387 79.7741 100.505 78.715 99.1838 78.6615C98.0937 78.6192 97.3304 79.4389 96.8938 80.3515C96.6755 80.8385 96.4974 81.3425 96.3614 81.8585C96.1643 82.5458 95.9765 83.2378 95.7981 83.9344C95.4582 85.3034 95.1671 86.6836 94.9249 88.0751C94.7925 88.8497 94.6686 89.6271 94.57 90.4073C94.4461 91.1983 94.3699 91.9959 94.3418 92.7959C94.3413 92.8267 94.3523 92.8565 94.3726 92.8797C94.3929 92.9028 94.421 92.9175 94.4516 92.921C94.4821 92.9246 94.5129 92.9166 94.5379 92.8987C94.5629 92.8807 94.5804 92.8542 94.5869 92.8241C94.7193 92.1706 94.7756 91.4974 94.8685 90.8383C94.9615 90.1792 95.0657 89.5116 95.1756 88.8525C95.4009 87.538 95.6619 86.2235 95.9586 84.909C96.2403 83.6725 96.522 82.419 96.9135 81.2163C97.1952 80.3543 97.6571 79.3488 98.5895 79.0389C99.9979 78.5685 101.291 79.7656 102.327 80.5459C102.358 80.56 102.389 80.5262 102.367 80.5093Z" fill="#263238"/>
<path d="M101.353 79.8054C101.353 79.8054 100.446 77.2224 101.755 76.7069C103.727 75.9492 108.848 81.7292 107.842 90.5851C107.842 90.5851 103.879 88.4021 100.95 85.9431C98.0204 83.484 97.288 80.2758 98.564 79.4476C99.84 78.6195 101.353 79.8054 101.353 79.8054Z" fill="#477C5E"/>
<path d="M107.252 88.6946C107.116 88.3855 106.957 88.0871 106.776 87.8017C106.607 87.4975 106.438 87.1961 106.264 86.8975C105.923 86.3144 105.585 85.7314 105.235 85.1511L105.064 84.8694C105.064 84.8356 105.078 84.799 105.083 84.7652L105.142 84.5089C105.188 84.3174 105.221 84.123 105.255 83.9286C105.328 83.5512 105.393 83.1681 105.495 82.8019C105.495 82.7766 105.458 82.7681 105.452 82.8019C105.371 83.1794 105.249 83.554 105.14 83.9286C105.083 84.1117 105.024 84.292 104.976 84.4779L104.926 84.6666C104.506 83.9765 104.081 83.2892 103.613 82.6245C103.643 82.5336 103.659 82.4386 103.661 82.3428C103.675 82.2132 103.689 82.0837 103.706 81.9541C103.74 81.6724 103.774 81.371 103.816 81.0809C103.9 80.5176 103.985 79.9542 104.126 79.3909C104.126 79.3627 104.089 79.3542 104.083 79.3909C103.94 79.9542 103.788 80.5176 103.681 81.0809C103.63 81.3626 103.579 81.6443 103.543 81.9259C103.526 82.0668 103.509 82.2076 103.495 82.3484C103.495 82.3879 103.495 82.433 103.478 82.4752C103.337 82.2752 103.196 82.0724 103.047 81.878C102.593 81.2809 102.123 80.7006 101.638 80.1204C101.622 80.0979 101.582 80.1204 101.602 80.1457C102.413 81.1832 103.158 82.2708 103.833 83.4019L104.219 84.03L104.089 84.0131C103.923 83.9906 103.757 83.9822 103.59 83.9653L102.588 83.8779C101.92 83.8244 101.25 83.785 100.585 83.7146C100.557 83.7146 100.548 83.754 100.585 83.7568C101.261 83.8357 101.931 83.9427 102.605 84.0385C102.937 84.0864 103.266 84.1315 103.599 84.1737C103.85 84.2237 104.106 84.2491 104.362 84.2498C104.624 84.6779 104.889 85.0948 105.151 85.5286C105.092 85.5286 105.03 85.5286 104.973 85.5286H104.019C103.588 85.5286 103.157 85.5286 102.728 85.5286C102.698 85.5286 102.703 85.5708 102.728 85.5708C103.165 85.5708 103.599 85.599 104.035 85.6215L104.655 85.6581L104.965 85.6807C105.058 85.7022 105.154 85.7022 105.247 85.6807L105.917 86.7679C106.123 87.1031 106.331 87.4355 106.542 87.7679C106.741 88.1202 106.967 88.4573 107.216 88.7763C107.227 88.7368 107.263 88.7228 107.252 88.6946Z" fill="#263238"/>
<path d="M105.362 81.5375C105.323 81.823 105.263 82.1053 105.185 82.3825C105.111 82.6642 105.03 82.9459 104.937 83.2276C104.935 83.2312 104.934 83.2351 104.935 83.239C104.935 83.2429 104.936 83.2467 104.937 83.2503C104.939 83.2538 104.941 83.257 104.944 83.2595C104.947 83.2621 104.951 83.264 104.954 83.2652C104.958 83.2664 104.962 83.2668 104.966 83.2664C104.97 83.2659 104.973 83.2647 104.977 83.2628C104.98 83.2608 104.983 83.2582 104.985 83.255C104.988 83.2519 104.989 83.2483 104.99 83.2445C105.078 82.9628 105.156 82.6811 105.224 82.3994C105.292 82.1178 105.337 81.8361 105.407 81.5403C105.407 81.5344 105.405 81.5285 105.402 81.524C105.398 81.5195 105.392 81.5168 105.386 81.5164C105.38 81.516 105.374 81.518 105.37 81.522C105.365 81.526 105.362 81.5315 105.362 81.5375Z" fill="#263238"/>
<path d="M102.45 83.2666C102.389 83.2155 102.312 83.1867 102.233 83.1849L101.858 83.1342C101.627 83.1032 101.393 83.0779 101.163 83.0497C100.678 82.9934 100.196 82.9455 99.7119 82.8864C99.6837 82.8864 99.6753 82.9258 99.7119 82.9286C100.168 82.9849 100.622 83.0554 101.078 83.1145L101.746 83.2018L102.07 83.2356C102.194 83.2368 102.318 83.2587 102.436 83.3004C102.44 83.3005 102.444 83.2993 102.447 83.2972C102.45 83.295 102.453 83.2919 102.454 83.2883C102.456 83.2846 102.456 83.2806 102.455 83.2768C102.455 83.2729 102.453 83.2694 102.45 83.2666Z" fill="#263238"/>
<path d="M105.357 87.1626C105.129 87.1429 104.898 87.1344 104.67 87.1288H104.323H104.157C104.085 87.1358 104.012 87.1358 103.94 87.1288C103.909 87.1288 103.907 87.1767 103.94 87.171C104.008 87.164 104.076 87.164 104.143 87.171H104.323L104.667 87.1936C104.895 87.2077 105.126 87.2217 105.354 87.2217C105.382 87.2105 105.385 87.1626 105.357 87.1626Z" fill="#263238"/>
<path d="M106.754 86.1708L106.83 85.7821C106.875 85.5258 106.923 85.2694 106.971 85.0159C106.971 85.01 106.968 85.0042 106.964 85C106.96 84.9958 106.954 84.9934 106.948 84.9934C106.942 84.9934 106.937 84.9958 106.932 85C106.928 85.0042 106.926 85.01 106.926 85.0159L106.757 85.7624C106.729 85.8863 106.7 86.0103 106.675 86.1342C106.675 86.1933 106.652 86.2497 106.638 86.3088C106.621 86.3681 106.614 86.4302 106.619 86.4919C106.619 86.4976 106.621 86.503 106.625 86.5074C106.629 86.5117 106.634 86.5149 106.639 86.5164C106.645 86.5179 106.651 86.5178 106.656 86.5159C106.661 86.514 106.666 86.5106 106.669 86.506C106.719 86.4006 106.747 86.2869 106.754 86.1708Z" fill="#263238"/>
<path d="M93.3291 91.8043L93.6051 94.945L94.5431 105.544H102.844L104.016 94.945L104.362 91.8043H93.3291Z" fill="#37474F"/>
<path d="M93.3291 91.8043L93.6051 94.945H104.016L104.362 91.8043H93.3291Z" fill="#263238"/>
<path d="M92.5054 93.4972H105.184V90.9508H92.5054V93.4972Z" fill="#37474F"/>
<path d="M48.4303 81.3902C48.4303 76.8834 49.1664 72.8338 50.6386 69.2415C52.1108 65.6492 55.1473 62.5198 59.748 59.8533C61.1301 59.0252 62.8333 58.0862 64.8576 57.0365C66.9406 55.9426 68.9262 54.6723 70.7925 53.2396C72.7003 51.7968 74.3564 50.0484 75.6936 48.0652C77.0417 46.0435 77.7404 43.6584 77.6963 41.2289C77.7366 39.4594 77.3603 37.7053 76.5978 36.108C75.8944 34.6821 74.9083 33.4142 73.6994 32.3815C72.4577 31.3467 71.0209 30.5718 69.4742 30.1027C67.8886 29.6022 66.2358 29.3467 64.5731 29.345C62.6887 29.3193 60.8179 29.6678 59.0691 30.3703C57.4605 31.0332 55.9514 31.9157 54.5849 32.9927C53.253 34.0471 52.0479 35.2523 50.9935 36.5841C50.0229 37.7947 49.1246 39.0616 48.3035 40.3783H46.2247L36.29 32.097C37.4391 29.3123 39.0494 26.7412 41.0532 24.4918C43.0124 22.2985 45.2915 20.4135 47.8134 18.9005C50.3788 17.3753 53.1469 16.2203 56.0355 15.4697C59.009 14.6843 62.0722 14.2894 65.1477 14.2951C68.6545 14.2971 72.1423 14.8085 75.5021 15.8133C78.8525 16.7994 81.973 18.4425 84.6819 20.6469C87.4802 22.9632 89.7416 25.8599 91.3097 29.1366C93.011 32.588 93.8617 36.7071 93.8617 41.4937C93.9043 44.1303 93.5559 46.7588 92.8279 49.2933C92.1671 51.4856 91.1642 53.5599 89.8563 55.4394C88.5611 57.2871 87.0299 58.9576 85.3016 60.4082C83.4249 61.9716 81.4408 63.4013 79.3639 64.6868C77.5217 65.7948 75.6814 66.8539 73.843 67.8641C72.0637 68.8348 70.377 69.9663 68.8038 71.2442C67.3224 72.4449 66.0606 73.8936 65.0745 75.5257C64.1092 77.1369 63.6266 79.0927 63.6266 81.393L48.4303 81.3902ZM48.7119 113.555V94.505H64.0351V113.555H48.7119Z" fill="#477C5E"/>
<g opacity="0.2">
<path d="M48.4283 81.3897C48.4283 76.8829 49.1644 72.8333 50.6366 69.241C52.1089 65.6487 55.1453 62.5193 59.746 59.8528C61.1281 59.0247 62.8313 58.0858 64.8556 57.036C66.9387 55.9421 68.9242 54.6718 70.7905 53.2391C72.6984 51.7963 74.3545 50.0479 75.6917 48.0647C77.0398 46.043 77.7385 43.6579 77.6944 41.2284C77.7347 39.459 77.3584 37.7048 76.5958 36.1076C75.8925 34.6816 74.9063 33.4137 73.6974 32.381C72.4558 31.3462 71.019 30.5713 69.4723 30.1022C67.8866 29.6017 66.2339 29.3462 64.5711 29.3445C62.6867 29.3188 60.8159 29.6673 59.0672 30.3698C57.4585 31.0327 55.9494 31.9152 54.5829 32.9922C53.2511 34.0466 52.0459 35.2518 50.9915 36.5836C50.0209 37.7942 49.1227 39.0612 48.3015 40.3778H46.2228L36.2881 32.0965C37.4372 29.3118 39.0475 26.7407 41.0512 24.4913C43.0105 22.298 45.2896 20.413 47.8114 18.9C50.3768 17.3748 53.1449 16.2198 56.0335 15.4692C59.0071 14.6838 62.0702 14.2889 65.1457 14.2946C68.6525 14.2966 72.1404 14.808 75.5001 15.8128C78.8505 16.7989 81.9711 18.442 84.6799 20.6464C87.4782 22.9627 89.7397 25.8594 91.3078 29.1361C93.0091 32.5876 93.8597 36.7066 93.8597 41.4932C93.9023 44.1299 93.554 46.7583 92.826 49.2928C92.1651 51.4852 91.1622 53.5594 89.8543 55.4389C88.5592 57.2867 87.0279 58.9571 85.2996 60.4077C83.4229 61.9711 81.4388 63.4008 79.3619 64.6863C77.5197 65.7943 75.6795 66.8534 73.8411 67.8636C72.0618 68.8344 70.375 69.9658 68.8019 71.2438C67.3205 72.4445 66.0586 73.8931 65.0725 75.5252C64.1073 77.1364 63.6247 79.0922 63.6247 81.3925L48.4283 81.3897ZM48.71 113.554V94.5045H64.0331V113.554H48.71Z" fill="black"/>
</g>
<path d="M46.3616 81.3902C46.3616 76.8834 47.0977 72.8339 48.5699 69.2416C50.0421 65.6493 53.0795 62.5198 57.6821 59.8533C59.0623 59.0252 60.7646 58.0863 62.7889 57.0366C64.8732 55.9433 66.8598 54.673 68.7266 53.2396C70.6338 51.7962 72.2898 50.0479 73.6277 48.0652C74.9737 46.0427 75.6713 43.658 75.6276 41.2289C75.664 39.4638 75.2858 37.7147 74.5235 36.1222C73.8201 34.6962 72.8339 33.4283 71.625 32.3956C70.3834 31.3608 68.9466 30.5859 67.3999 30.1168C65.8143 29.6163 64.1615 29.3608 62.4987 29.3591C60.6143 29.3279 58.7424 29.6716 56.992 30.3703C55.3825 31.0334 53.8725 31.9159 52.5049 32.9927C51.174 34.0472 49.9697 35.2523 48.9164 36.5841C47.9449 37.7947 47.0457 39.0617 46.2235 40.3783L34.2129 32.097C35.3612 29.3119 36.9715 26.7407 38.976 24.4918C40.9345 22.2977 43.2137 20.4126 45.7362 18.9005C48.3009 17.3758 51.0679 16.2208 53.9555 15.4697C56.9317 14.6833 59.9978 14.2885 63.0762 14.2951C66.583 14.2969 70.0709 14.8083 73.4306 15.8134C76.7812 16.7988 79.9019 18.4419 82.6104 20.6469C85.4093 22.9626 87.6709 25.8595 89.2382 29.1366C90.9395 32.5881 91.7911 36.7071 91.793 41.4937C91.8347 44.1305 91.4854 46.7589 90.7564 49.2933C90.0939 51.4866 89.0881 53.561 87.7763 55.4395C86.4811 57.2872 84.9499 58.9576 83.2216 60.4082C81.3459 61.9729 79.3617 63.4027 77.2839 64.6869C75.4455 65.7948 73.6052 66.8539 71.7631 67.8642C69.9838 68.8349 68.297 69.9663 66.7239 71.2443C65.2433 72.445 63.9824 73.8937 62.9973 75.5257C62.0321 77.1369 61.5486 79.0927 61.5467 81.393L46.3616 81.3902ZM46.6432 113.555V94.505H61.9495V113.555H46.6432Z" fill="#477C5E"/>
<path d="M40.0434 115.079C39.4435 115.27 22.3373 115.051 21.6923 114.628C21.4444 114.47 21.3317 111.977 21.281 108.958V108.865C21.281 108.242 21.2613 107.6 21.2585 106.952C21.2585 106.862 21.2585 106.772 21.2585 106.685C21.236 102.33 21.3036 97.8092 21.3036 97.8092L32.748 97.9247L32.4016 106.705L32.3875 107.054L32.3171 108.873V109.059C32.3171 109.059 38.821 112.085 39.4829 112.62C40.1448 113.155 40.6434 114.887 40.0434 115.079Z" fill="#AD6359"/>
<path d="M40.0447 115.079C39.4447 115.27 22.3386 115.051 21.6935 114.628C21.4457 114.47 21.333 111.977 21.2823 108.958V108.865C21.2823 108.242 21.2626 107.6 21.2598 106.952C21.2598 106.862 21.2598 106.772 21.2598 106.685L32.4057 106.716L32.3916 107.065L32.3212 108.885V109.071C32.3212 109.071 38.8222 112.085 39.4842 112.62C40.1461 113.155 40.6447 114.887 40.0447 115.079Z" fill="#EBEBEB"/>
<path d="M40.0457 115.078C39.6767 115.197 33.0489 115.157 27.8604 115.011C24.6212 114.923 21.9453 114.788 21.6946 114.628C21.4439 114.467 21.3368 112.048 21.2861 109.084C21.2861 109.042 21.2861 109 21.2861 108.958C21.2861 108.915 21.2861 108.893 21.2861 108.862L32.325 108.884V109.07C32.325 109.07 38.8373 112.084 39.4964 112.622C40.1556 113.16 40.6457 114.887 40.0457 115.078Z" fill="#477C5E"/>
<path d="M39.8621 114.411C36.9777 114.304 25.3417 114.13 22.4827 114.251C22.4602 114.251 22.4602 114.268 22.4827 114.27C25.3389 114.439 36.9749 114.51 39.8593 114.459C39.9212 114.459 39.9212 114.414 39.8621 114.411Z" fill="#263238"/>
<path d="M33.5453 108.93C32.4186 108.704 31.0243 108.859 30.1455 109.656C30.1117 109.687 30.1455 109.735 30.1934 109.724C31.2826 109.389 32.4044 109.171 33.5397 109.073C33.5565 109.071 33.5719 109.062 33.5832 109.05C33.5945 109.037 33.601 109.021 33.6017 109.004C33.6024 108.987 33.5971 108.97 33.5868 108.957C33.5765 108.943 33.5619 108.934 33.5453 108.93Z" fill="#263238"/>
<path d="M34.3608 109.434C33.2341 109.208 31.8398 109.363 30.9609 110.16C30.9271 110.191 30.9609 110.239 31.0088 110.228C32.0944 109.894 33.2123 109.676 34.3439 109.577C34.3613 109.577 34.3779 109.57 34.3906 109.558C34.4034 109.546 34.4116 109.53 34.4136 109.513C34.4156 109.495 34.4114 109.478 34.4017 109.463C34.3921 109.449 34.3775 109.438 34.3608 109.434Z" fill="#263238"/>
<path d="M35.1733 109.938C34.0466 109.712 32.6523 109.867 31.7734 110.664C31.7396 110.695 31.7734 110.743 31.8213 110.732C32.9107 110.398 34.0324 110.181 35.1676 110.084C35.187 110.085 35.206 110.078 35.2202 110.065C35.2345 110.052 35.2429 110.033 35.2437 110.014C35.2444 109.994 35.2374 109.975 35.2242 109.961C35.211 109.947 35.1927 109.938 35.1733 109.938Z" fill="#263238"/>
<path d="M35.056 106.473C34.6166 105.854 33.7829 106.121 33.304 106.513C32.4944 107.2 31.8803 108.089 31.5238 109.09C31.522 109.094 31.5212 109.099 31.5216 109.104C31.5219 109.108 31.5234 109.113 31.526 109.117C31.5285 109.12 31.5319 109.124 31.536 109.126C31.54 109.128 31.5446 109.129 31.5492 109.129C31.5492 109.217 31.6281 109.31 31.7266 109.273C32.6674 108.938 33.7153 108.71 34.5265 108.084C34.9997 107.727 35.4701 107.062 35.056 106.473ZM33.0477 108.473C32.5886 108.651 32.1238 108.803 31.6731 108.994C32.0224 108.493 32.3463 107.98 32.7463 107.513C32.9359 107.286 33.1391 107.072 33.3547 106.87C33.6984 106.569 35.0448 105.932 34.8251 107.175C34.7068 107.859 33.597 108.265 33.0477 108.473Z" fill="#263238"/>
<path d="M28.6421 108.755C29.5716 109.166 30.6476 109.16 31.6419 109.27C31.7433 109.27 31.7968 109.172 31.7799 109.087C31.7843 109.086 31.7883 109.083 31.7916 109.08C31.7949 109.077 31.7975 109.073 31.7991 109.069C31.8007 109.064 31.8014 109.06 31.801 109.055C31.8006 109.051 31.7992 109.046 31.7968 109.042C31.2176 108.152 30.4155 107.428 29.4702 106.944C28.9068 106.662 28.0393 106.606 27.7576 107.31C27.4759 108.014 28.0984 108.515 28.6421 108.755ZM28.1407 107.938C27.6449 106.78 29.1012 107.093 29.5012 107.307C29.7595 107.45 30.0071 107.612 30.242 107.792C30.7245 108.165 31.187 108.564 31.6278 108.986C31.1433 108.901 30.656 108.862 30.1687 108.794C29.5885 108.718 28.428 108.577 28.1463 107.938H28.1407Z" fill="#263238"/>
<path d="M27.8653 115.011C24.6261 114.924 21.9501 114.789 21.6994 114.628C21.4488 114.468 21.3417 112.048 21.291 109.085C22.6149 110.271 25.9161 113.214 27.8653 115.011Z" fill="#263238"/>
<path d="M17.793 48.5331C17.793 48.5331 20.3618 77.4386 20.7787 79.6441C20.8773 80.1483 20.9365 82.8806 20.9759 86.3903C21.0632 94.0547 21.0125 107.874 21.0125 107.874H33.071C33.071 107.874 32.7133 83.9312 32.1781 79.523C31.643 75.1148 28.2347 48.5387 28.2347 48.5387L17.793 48.5331Z" fill="#37474F"/>
<path d="M32.5227 105.772C30.6412 105.733 31.182 105.719 29.3004 105.699C28.3793 105.699 22.3289 105.64 21.467 105.781C21.4618 105.781 21.4567 105.783 21.453 105.786C21.4493 105.79 21.4473 105.795 21.4473 105.8C21.4473 105.805 21.4493 105.811 21.453 105.814C21.4567 105.818 21.4618 105.82 21.467 105.82C22.3289 105.961 28.3793 105.91 29.3004 105.899C31.182 105.882 30.6412 105.868 32.5227 105.828C32.5302 105.828 32.5374 105.825 32.5427 105.82C32.5479 105.815 32.5509 105.808 32.5509 105.8C32.5509 105.793 32.5479 105.786 32.5427 105.78C32.5374 105.775 32.5302 105.772 32.5227 105.772Z" fill="#263238"/>
<path d="M23.3003 92.0851C23.2853 90.335 23.2721 88.5858 23.2609 86.8375C23.2609 85.1475 23.2609 83.4574 23.1707 81.7674C23.0073 78.3394 22.3257 74.9705 21.8187 71.582C21.3117 68.1934 20.9117 64.7908 20.5371 61.3853C20.1174 57.5658 19.7484 53.7378 19.3568 49.9155C19.3568 49.8901 19.3118 49.8901 19.3146 49.9155C19.8779 56.7433 20.5173 63.5683 21.4609 70.3539C21.6976 72.0439 21.9548 73.7283 22.2327 75.4071C22.5144 77.0972 22.7961 78.8098 22.9285 80.5308C23.0609 82.2518 23.0806 83.9109 23.0975 85.601C23.1181 87.3511 23.136 89.0994 23.151 90.8458C23.1876 94.7272 23.2242 100.704 23.2637 104.586C23.2666 104.599 23.2739 104.611 23.2844 104.619C23.2949 104.628 23.308 104.632 23.3214 104.632C23.3349 104.632 23.3479 104.628 23.3584 104.619C23.3689 104.611 23.3762 104.599 23.3792 104.586C23.3566 101.104 23.3256 95.5469 23.3003 92.0851Z" fill="#263238"/>
<path d="M15.248 48.5331C15.248 48.5331 20.3605 77.4386 20.7773 79.6441C20.8759 80.1483 20.9351 82.8806 20.9745 86.3903L26.7376 48.5331H15.248Z" fill="#263238"/>
<path d="M26.0435 116.098C25.4322 116.247 8.38242 114.814 7.76837 114.349C7.53176 114.174 7.59655 111.679 7.76837 108.665C7.76837 108.634 7.76837 108.6 7.76837 108.569C7.80217 107.949 7.83879 107.31 7.88386 106.662L7.90076 106.38C8.18243 102.034 8.57396 97.53 8.57396 97.53L19.979 98.4708L19.0129 107.203L18.9762 107.549L18.7791 109.36L18.7593 109.546C18.7593 109.546 25.0379 113.014 25.6604 113.597C26.2829 114.18 26.6547 115.949 26.0435 116.098Z" fill="#AD6359"/>
<path d="M26.0435 116.098C25.4322 116.248 8.38242 114.814 7.76837 114.349C7.53176 114.174 7.59655 111.679 7.76837 108.665C7.76837 108.634 7.76837 108.6 7.76837 108.569C7.80217 107.949 7.83879 107.31 7.88386 106.662L7.90076 106.38L19.0129 107.2L18.9762 107.547L18.7791 109.358L18.7593 109.544C18.7593 109.544 25.0379 113.011 25.6604 113.594C26.2829 114.177 26.6547 115.949 26.0435 116.098Z" fill="#EBEBEB"/>
<path d="M26.0435 116.099C25.4322 116.248 8.38242 114.814 7.76837 114.349C7.53176 114.175 7.59655 111.679 7.76837 108.665C7.76837 108.634 7.76837 108.6 7.76837 108.569L18.7791 109.372L18.7593 109.558C18.7593 109.558 25.0379 113.026 25.6604 113.609C26.2829 114.192 26.6547 115.949 26.0435 116.099Z" fill="#477C5E"/>
<path d="M25.8937 115.419C23.0263 115.107 11.4297 114.121 8.57071 114.028C8.54817 114.028 8.54536 114.045 8.57071 114.047C11.4044 114.419 23.0094 115.312 25.8909 115.456C25.9614 115.47 25.967 115.436 25.8937 115.419Z" fill="#263238"/>
<path d="M19.9962 109.504C18.8695 109.2 17.4864 109.257 16.5541 109.989C16.5175 110.017 16.5541 110.071 16.5963 110.062C17.705 109.804 18.8382 109.665 19.9764 109.648C19.9941 109.648 20.0111 109.642 20.0243 109.63C20.0376 109.618 20.0462 109.602 20.0486 109.585C20.051 109.567 20.047 109.55 20.0374 109.535C20.0278 109.52 20.0131 109.509 19.9962 109.504Z" fill="#263238"/>
<path d="M20.7731 110.065C19.6464 109.761 18.2606 109.817 17.3282 110.549C17.2944 110.578 17.3282 110.631 17.3705 110.623C18.4792 110.364 19.6123 110.225 20.7506 110.209C20.7685 110.209 20.786 110.203 20.7998 110.192C20.8136 110.18 20.8228 110.164 20.8255 110.147C20.8283 110.129 20.8245 110.111 20.8149 110.096C20.8052 110.081 20.7904 110.07 20.7731 110.065Z" fill="#263238"/>
<path d="M21.5485 110.625C20.4218 110.321 19.0359 110.377 18.1036 111.11C18.0698 111.138 18.1036 111.191 18.1486 111.183C19.2572 110.924 20.3905 110.785 21.5287 110.769C21.5464 110.769 21.5634 110.762 21.5766 110.751C21.5899 110.739 21.5985 110.723 21.6009 110.706C21.6033 110.688 21.5993 110.67 21.5897 110.656C21.5801 110.641 21.5654 110.63 21.5485 110.625Z" fill="#263238"/>
<path d="M21.6682 107.163C21.2767 106.513 20.426 106.718 19.919 107.076C19.0575 107.703 18.3772 108.546 17.9473 109.521C17.9473 109.544 17.9473 109.558 17.9698 109.563C17.9672 109.585 17.9698 109.608 17.9774 109.628C17.985 109.649 17.9974 109.668 18.0136 109.683C18.0298 109.698 18.0493 109.709 18.0706 109.715C18.0918 109.721 18.1142 109.722 18.136 109.718C19.0965 109.451 20.1612 109.284 21.0119 108.73C21.5302 108.394 22.0456 107.778 21.6682 107.163ZM19.5246 109.014C19.0542 109.158 18.581 109.276 18.1163 109.437C18.4836 108.947 18.8756 108.477 19.2909 108.028C19.495 107.815 19.7133 107.615 19.9443 107.431C20.3077 107.149 21.6935 106.611 21.3893 107.837C21.2288 108.518 20.0908 108.845 19.5303 109.014H19.5246Z" fill="#263238"/>
<path d="M15.116 108.983C16.0145 109.459 17.0877 109.529 18.0707 109.707C18.1721 109.727 18.2341 109.622 18.2228 109.538C18.2272 109.536 18.2312 109.534 18.2345 109.531C18.2379 109.528 18.2404 109.524 18.242 109.519C18.2437 109.515 18.2443 109.51 18.2439 109.506C18.2435 109.501 18.2421 109.497 18.2397 109.493C17.7269 108.564 16.9777 107.786 16.068 107.239C15.5328 106.927 14.6597 106.8 14.3357 107.482C14.0118 108.163 14.5921 108.704 15.116 108.983ZM14.6737 108.138C14.2597 106.947 15.6906 107.361 16.0821 107.603C16.3287 107.766 16.564 107.946 16.7863 108.141C17.2413 108.548 17.6747 108.979 18.0848 109.431C17.606 109.313 17.1243 109.237 16.6426 109.149C16.0624 109.011 14.9075 108.792 14.6737 108.132V108.138Z" fill="#263238"/>
<path d="M19.2641 108.524L7.2168 108.014C7.2168 108.014 10.5068 81.5764 10.5659 79.9455C10.7237 75.7203 13.5263 48.5133 13.5263 48.5133H28.2411C28.2411 48.5133 27.3115 54.7975 25.7257 58.7804C24.6583 59.154 23.6276 59.6254 22.647 60.1888C22.647 60.1888 21.2668 78.185 21.2161 80.43C21.1034 84.8748 19.2641 108.524 19.2641 108.524Z" fill="#37474F"/>
<path d="M18.946 106.316C17.07 106.198 17.6109 106.206 15.7293 106.108C14.811 106.06 8.76625 105.753 7.90151 105.857C7.88179 105.857 7.88179 105.891 7.90151 105.896C8.74653 106.074 14.8054 106.279 15.7236 106.308C17.6052 106.37 17.0672 106.333 18.9488 106.372C18.9563 106.372 18.9633 106.369 18.9683 106.363C18.9733 106.358 18.976 106.35 18.9756 106.343C18.9752 106.335 18.9719 106.328 18.9663 106.323C18.9608 106.318 18.9535 106.316 18.946 106.316Z" fill="#263238"/>
<path d="M14.6057 50.1357C14.0593 56.9889 13.4987 63.8449 12.8706 70.698C12.2425 77.5512 11.5073 84.4325 10.6172 91.2744C10.1186 95.0911 9.55527 100.474 8.96094 104.282C8.96094 104.308 8.99474 104.319 9.00037 104.282C10.2144 97.522 11.1073 89.1168 11.865 82.2862C12.6227 75.4555 13.2452 68.6052 13.8001 61.7548C14.1128 57.879 14.3945 54.0003 14.693 50.1245C14.6958 50.0878 14.6254 50.0878 14.6057 50.1357Z" fill="#263238"/>
<path d="M26.2511 58.5154C25.0031 58.9724 23.7976 59.538 22.6484 60.2055C22.6387 60.2099 22.6312 60.2181 22.6275 60.2281C22.6238 60.2382 22.6242 60.2493 22.6287 60.259C22.6332 60.2687 22.6414 60.2762 22.6514 60.2799C22.6614 60.2836 22.6725 60.2832 22.6822 60.2787C23.8963 59.7576 25.1328 59.259 26.3158 58.6703C26.3364 58.6617 26.3527 58.6453 26.3611 58.6247C26.3696 58.6041 26.3695 58.581 26.3609 58.5605C26.3523 58.5399 26.3359 58.5236 26.3153 58.5152C26.2947 58.5067 26.2716 58.5068 26.2511 58.5154Z" fill="#263238"/>
<path d="M26.6354 50.1862C26.6354 50.1439 26.5593 50.1355 26.5593 50.1862C26.5593 51.6255 26.4777 52.8931 26.3565 54.2423C26.3002 54.8676 25.7932 58.321 24.7115 58.0703C24.5313 58.028 24.4299 57.8477 24.4102 57.5745C24.4122 57.2168 24.4605 56.8608 24.5538 56.5154C24.6721 55.7915 24.7707 55.0676 24.8355 54.3353C24.9613 52.975 24.9462 51.6053 24.7904 50.2481C24.7882 50.2405 24.7836 50.2338 24.7773 50.229C24.7709 50.2242 24.7632 50.2216 24.7552 50.2216C24.7472 50.2216 24.7395 50.2242 24.7332 50.229C24.7268 50.2338 24.7222 50.2405 24.72 50.2481C24.7521 52.1316 24.6419 54.0148 24.3904 55.8817C24.2552 56.7802 23.8017 58.1351 24.7425 58.2703C25.6833 58.4055 26.3199 56.1464 26.4326 55.5267C26.7315 53.7629 26.7997 51.9676 26.6354 50.1862Z" fill="#263238"/>
<path d="M24.7414 58.1578C24.6439 58.3903 24.563 58.6294 24.4992 58.8732C24.4281 59.0612 24.3937 59.261 24.3978 59.4619C24.3978 59.5014 24.4513 59.5042 24.471 59.4788C24.583 59.3047 24.6685 59.1148 24.7245 58.9155C24.8062 58.693 24.8935 58.4733 24.9696 58.2479C24.9815 58.2177 24.981 58.1839 24.968 58.1541C24.9551 58.1242 24.9308 58.1007 24.9006 58.0888C24.8703 58.0768 24.8366 58.0774 24.8067 58.0903C24.7769 58.1033 24.7534 58.1275 24.7414 58.1578Z" fill="#263238"/>
<path d="M19.8349 51.316C19.8383 51.1654 19.8232 51.015 19.7898 50.8681C19.7877 50.864 19.7845 50.8605 19.7805 50.8581C19.7765 50.8557 19.772 50.8544 19.7673 50.8544C19.7626 50.8544 19.7581 50.8557 19.7541 50.8581C19.7501 50.8605 19.7469 50.864 19.7448 50.8681C19.715 50.9957 19.698 51.1259 19.6941 51.2568C19.6941 51.4061 19.6603 51.5385 19.6434 51.7019C19.6121 52.0066 19.5594 52.3087 19.4856 52.606C19.3485 53.1673 19.0624 53.6812 18.6575 54.0933C18.2537 54.4906 17.775 54.8037 17.2491 55.0144C16.6671 55.2205 16.0737 55.3926 15.4718 55.5298C15.4658 55.5298 15.46 55.5322 15.4558 55.5364C15.4516 55.5407 15.4492 55.5464 15.4492 55.5524C15.4492 55.5583 15.4516 55.5641 15.4558 55.5683C15.46 55.5725 15.4658 55.5749 15.4718 55.5749C16.1382 55.5736 16.7982 55.4435 17.4153 55.1918C17.9624 54.9866 18.4604 54.669 18.8772 54.2595C19.2933 53.8364 19.5856 53.3074 19.7222 52.73C19.7912 52.4322 19.8308 52.1285 19.8405 51.823C19.8485 51.654 19.8466 51.4847 19.8349 51.316Z" fill="#263238"/>
<path d="M34.2359 23.7736C35.1429 24.8694 36.1288 27.8298 36.0921 28.6382C36.0555 29.4466 31.0727 31.2831 30.3685 30.8437C29.6643 30.4043 26.8926 26.489 26.8673 25.0384C26.8419 23.5877 33.2951 22.6413 34.2359 23.7736Z" fill="#AD6359"/>
<path d="M26.7382 21.7624C26.2819 21.2863 24.8059 19.8639 24.1496 20.5061C23.7384 20.9061 24.7299 22.0018 25.1468 22.4356C26.0059 23.3257 26.6706 24.9002 26.9805 25.6692C27.2903 26.4382 28.741 24.9199 28.741 24.9199C28.741 24.9199 27.9297 22.9989 26.7382 21.7624Z" fill="#AD6359"/>
<path d="M27.9485 26.5282C27.9485 26.5282 28.4584 27.8971 29.2893 27.8661C30.1203 27.8351 29.909 26.6577 29.8977 26.5732C29.9231 26.6465 30.4245 27.8915 31.2582 27.776C32.092 27.6605 31.7371 26.5028 31.7117 26.4296C31.7568 26.4887 32.399 27.2746 33.0103 27.0408C34.0637 26.6408 32.4835 24.593 32.6356 23.6945C32.6356 23.6945 34.1905 23.7818 34.2355 23.7734C34.2355 23.7734 32.7708 21.8016 31.5455 21.6552C31.3672 21.6305 31.1858 21.668 31.0319 21.7613C30.878 21.8547 30.761 21.9983 30.7005 22.1678C30.7005 22.1678 30.2977 21.4777 29.6386 21.5481C29.3006 21.5848 29.0583 22.1594 29.0583 22.1594C28.9595 22.0077 28.8206 21.8864 28.657 21.8088C28.4935 21.7312 28.3116 21.7005 28.1316 21.72C27.6669 21.796 27.4359 22.3763 27.4105 22.6016C27.2134 24.3255 27.9485 26.5282 27.9485 26.5282Z" fill="#AD6359"/>
<path d="M27.4653 22.4441C27.4653 22.4441 27.4455 22.4441 27.4427 22.4441C27.1887 23.8441 27.3666 25.2882 27.9526 26.5847C27.9723 26.6242 28.0455 26.6101 28.0314 26.5622C27.6449 25.224 27.4542 23.8369 27.4653 22.4441Z" fill="#263238"/>
<path d="M29.0564 22.1399C29.0564 22.123 29.031 22.123 29.0282 22.1399C28.7656 23.6858 29.0654 25.2746 29.8733 26.6185C29.9042 26.6664 29.9775 26.6777 29.9465 26.6185C29.431 25.6833 29.0282 23.444 29.0564 22.1399Z" fill="#263238"/>
<path d="M31.8089 26.503C31.0371 25.1791 30.7639 23.7426 30.6991 22.2243C30.6991 22.2046 30.6709 22.2074 30.6653 22.2243C30.4963 22.9764 30.6399 23.9369 30.8146 24.6777C30.9641 25.3668 31.2914 26.0048 31.7638 26.5283C31.7779 26.5509 31.8089 26.5311 31.8089 26.503Z" fill="#263238"/>
<path d="M27.9492 26.5281C28.0718 26.7811 28.217 27.0224 28.383 27.2492C28.5355 27.4764 28.7454 27.6591 28.9914 27.7788C29.1084 27.8237 29.2378 27.8237 29.3548 27.7788C29.4744 27.736 29.5811 27.6632 29.6646 27.5675C29.7385 27.4649 29.7902 27.3481 29.8163 27.2244C29.8425 27.1007 29.8427 26.973 29.8167 26.8492L29.7125 26.2408L30.0224 26.776C30.1578 27.0153 30.3309 27.2312 30.535 27.4154C30.6241 27.5059 30.7316 27.5763 30.8501 27.622C30.9686 27.6676 31.0955 27.6875 31.2223 27.6802C31.3404 27.673 31.4525 27.6255 31.5397 27.5454C31.6269 27.4654 31.6839 27.3578 31.7011 27.2408C31.7338 26.9775 31.6999 26.7102 31.6026 26.4633L31.3519 25.776L31.811 26.3394C31.9387 26.4967 32.0854 26.6377 32.2476 26.7591C32.3981 26.8782 32.5803 26.9507 32.7715 26.9675C32.8578 26.9715 32.9434 26.9515 33.019 26.9097C33.0946 26.8679 33.1571 26.8061 33.1996 26.7309C33.2661 26.5508 33.2807 26.3556 33.2419 26.1676C33.1612 25.7519 33.0481 25.3432 32.9039 24.9451C32.8363 24.7423 32.7687 24.5367 32.7124 24.3282C32.6433 24.1236 32.6183 23.9066 32.6391 23.6917C32.6429 23.9045 32.6868 24.1148 32.7687 24.3113C32.8419 24.5113 32.9236 24.7085 33.0053 24.9085C33.18 25.3069 33.3168 25.7209 33.4137 26.145C33.4717 26.3729 33.4619 26.6128 33.3856 26.8351C33.3305 26.9518 33.2425 27.0497 33.1323 27.1168C33.0222 27.1839 32.8948 27.2172 32.7659 27.2126C32.5278 27.1992 32.2993 27.1148 32.1096 26.9704C31.9262 26.8391 31.7606 26.6848 31.6166 26.5112L31.8251 26.3873C31.9465 26.6761 31.9902 26.9917 31.9518 27.3027C31.9261 27.4758 31.8403 27.6343 31.7096 27.7506C31.5792 27.8591 31.4193 27.9258 31.2505 27.9421C31.0894 27.9521 30.9281 27.9273 30.7774 27.8694C30.6268 27.8116 30.4903 27.7221 30.3773 27.6069C30.1507 27.4039 29.9602 27.1638 29.8139 26.8971L30.0195 26.8239C30.0459 26.9783 30.0384 27.1366 29.9975 27.2879C29.9567 27.4392 29.8835 27.5797 29.7829 27.6999C29.6744 27.8131 29.5386 27.8965 29.3886 27.9421C29.2358 27.9893 29.0709 27.9772 28.9266 27.9083C28.6676 27.7667 28.4538 27.5548 28.3098 27.2971C28.1609 27.0552 28.0399 26.7973 27.9492 26.5281Z" fill="#263238"/>
<path d="M29.7815 30.2605C29.7815 30.2605 24.41 27.5142 26.5141 25.9424C27.1366 25.4748 30.2604 24.3003 30.5082 24.9228C30.8294 25.7255 29.6153 26.4607 28.7816 26.7987C28.7816 26.7987 30.7392 27.4776 30.6744 28.9789C30.6581 29.254 30.5661 29.5194 30.4086 29.7455C30.251 29.9717 30.034 30.1499 29.7815 30.2605Z" fill="#AD6359"/>
<path d="M26.3457 26.0835C26.5674 25.8703 26.82 25.6917 27.095 25.5539C27.3682 25.4083 27.6504 25.2804 27.94 25.1709C28.5151 24.9449 29.1089 24.7696 29.7145 24.6469C29.8756 24.6132 30.0408 24.6037 30.2047 24.6188C30.3038 24.6249 30.4002 24.6538 30.4863 24.7033C30.5311 24.7292 30.5711 24.7625 30.6046 24.8019C30.6378 24.841 30.6636 24.8859 30.6807 24.9343C30.7455 25.1077 30.7455 25.2988 30.6807 25.4723C30.6213 25.6305 30.5335 25.7766 30.4215 25.9032C30.2093 26.1434 29.9567 26.3445 29.6751 26.4975C29.4042 26.6526 29.1217 26.7863 28.8301 26.8975V26.6975C29.0508 26.7837 29.2629 26.8903 29.4638 27.0158C29.6659 27.1376 29.8547 27.2802 30.0272 27.4412C30.1972 27.6066 30.3415 27.7965 30.4553 28.0045C30.5706 28.2071 30.6462 28.4299 30.6779 28.6608C30.6182 28.4412 30.5231 28.2328 30.3962 28.0439C30.2666 27.861 30.1131 27.6961 29.9399 27.5538C29.7659 27.4085 29.5771 27.282 29.3765 27.1764C29.1816 27.069 28.977 26.9803 28.7653 26.9116L28.5033 26.8299L28.7568 26.7116C29.0315 26.5926 29.2978 26.4552 29.554 26.3004C29.8071 26.1543 30.0353 25.9689 30.23 25.7511C30.3233 25.6609 30.3919 25.5483 30.4294 25.4241C30.4669 25.2998 30.4719 25.168 30.4441 25.0413C30.3821 24.8441 30.0469 24.8526 29.7624 24.8948C29.4779 24.9371 29.1765 25.0131 28.8808 25.0864C28.585 25.1596 28.2949 25.2413 28.0048 25.3342C27.4163 25.4965 26.8566 25.7493 26.3457 26.0835Z" fill="#263238"/>
<path d="M23.5971 34.1473C28.3461 40.009 35.25 43.806 36.9542 42.5694C38.6583 41.3329 32.9149 34.86 32.8163 34.7642C32.4811 34.4431 29.9404 33.122 25.3266 31.1785C20.8001 29.2715 21.4761 31.5306 23.5971 34.1473Z" fill="#AD6359"/>
<path d="M30.6806 33.4686L27.1033 38.1726C27.1033 38.1726 24.1006 35.0742 22.512 33.0236C20.9233 30.973 21.0811 29.3787 24.6358 30.7026C26.7167 31.473 28.7373 32.3975 30.6806 33.4686Z" fill="#477C5E"/>
<path d="M26.7642 37.0939C27.2008 36.4517 27.6571 35.8207 28.1247 35.2039C28.3585 34.8997 28.5838 34.5898 28.8232 34.2884C29.0626 33.987 29.3359 33.6856 29.5809 33.3758C29.5978 33.3533 29.6316 33.3758 29.6147 33.3983C29.3894 33.7082 29.1866 34.0321 28.9612 34.3419C28.7359 34.6518 28.488 34.9729 28.2486 35.2884C27.7773 35.9081 27.2918 36.5165 26.7923 37.1136C26.7783 37.1305 26.7388 37.1136 26.7642 37.0939Z" fill="#263238"/>
<path d="M28.8168 35.9136L27.1043 38.167C27.1043 38.167 24.1016 35.0686 22.5129 33.018L22.3608 32.818L22.2961 32.725L22.1975 32.5814C22.113 32.4574 22.0369 32.3363 21.9693 32.218C21.944 32.1757 21.9214 32.1335 21.8989 32.0912C21.7814 31.8775 21.687 31.6518 21.6172 31.418C21.5965 31.3459 21.5805 31.2725 21.5693 31.1983C21.5693 31.1617 21.5693 31.1279 21.5693 31.0941C23.1298 32.1757 26.7916 34.5446 28.8168 35.9136Z" fill="#263238"/>
<path d="M28.9618 51.4199C28.9618 51.4199 12.6613 51.7016 12.5655 51.6002C12.312 51.3185 15.6048 34.5335 19.0102 31.0745C20.213 29.852 22.6946 30.3506 23.1086 30.5506C24.0635 31.0125 24.962 32.0096 25.7141 33.8574C27.2183 37.553 29.1675 51.1551 28.9618 51.4199Z" fill="#477C5E"/>
<path opacity="0.1" d="M23.9215 31.1025H18.9838L19.0091 31.0744C19.124 30.9581 19.2516 30.8552 19.3894 30.7673H23.4877C23.6412 30.8671 23.7863 30.9792 23.9215 31.1025ZM24.4652 31.6659H18.519C18.4401 31.7701 18.3641 31.8828 18.288 32.0011H24.7243C24.6426 31.8828 24.5581 31.7785 24.4849 31.6659H24.4652ZM25.0792 32.5644H17.9472C17.8852 32.6743 17.8233 32.7869 17.7641 32.9024H25.2708C25.2116 32.7869 25.1496 32.6715 25.0849 32.5644H25.0792ZM25.5383 33.4658H17.4796L17.3191 33.801H25.6876C25.6426 33.6855 25.5947 33.5728 25.544 33.4686L25.5383 33.4658ZM25.8961 34.3643H17.0712L16.9275 34.6995H26.0116C25.9749 34.5953 25.9383 34.4714 25.8933 34.3643H25.8961ZM26.1777 35.2629H16.6994C16.6571 35.3755 16.6121 35.4854 16.567 35.6009H26.2763L26.1777 35.2629ZM26.42 36.1614H16.3585C16.3191 36.2741 16.2769 36.3839 16.2374 36.4994H26.5101C26.4744 36.3849 26.4463 36.2722 26.4256 36.1614H26.42ZM26.6397 37.0628H16.0346C15.9952 37.1726 15.9586 37.2853 15.9219 37.398H26.7157L26.6397 37.0628ZM26.8425 37.9613H15.7529C15.7163 38.0712 15.6825 38.1838 15.6459 38.2965H26.9355C26.896 38.1838 26.8735 38.0712 26.8481 37.9754L26.8425 37.9613ZM27.034 38.8599H15.4713C15.4346 38.9697 15.4008 39.0824 15.367 39.1979H27.1242C27.0876 39.0852 27.065 38.9725 27.0397 38.8599H27.034ZM27.2171 39.7584H15.1896C15.1558 39.8711 15.122 39.9838 15.091 40.0964H27.3016L27.2171 39.7584ZM27.3918 40.6598H14.9248C14.891 40.7724 14.86 40.8823 14.829 40.995H27.4594C27.4397 40.8823 27.4199 40.7696 27.3974 40.6598H27.3918ZM27.558 41.5583H14.6741C14.6431 41.671 14.6122 41.7837 14.584 41.8935H27.6256C27.6058 41.7808 27.5833 41.671 27.5636 41.5583H27.558ZM27.7185 42.4569H14.4347C14.4037 42.5695 14.3755 42.6822 14.3474 42.7949H27.7833C27.7664 42.6822 27.7467 42.5695 27.7241 42.4569H27.7185ZM27.8791 43.3582H14.2009C14.1756 43.4709 14.1474 43.5807 14.1192 43.6934H27.9382C27.9213 43.5836 27.9016 43.4709 27.8847 43.3582H27.8791ZM28.0255 44.2568H13.9784C13.953 44.3694 13.9249 44.4821 13.8995 44.592H28.0875C28.0706 44.4821 28.0509 44.3694 28.0312 44.2568H28.0255ZM28.172 45.1553H13.7643C13.739 45.2708 13.7136 45.3835 13.6854 45.4933H28.2312C28.2143 45.3807 28.1974 45.2708 28.1776 45.1553H28.172ZM28.3157 46.0539H13.5587C13.5333 46.1665 13.508 46.282 13.4826 46.3919H28.3692C28.3523 46.282 28.3354 46.1693 28.3213 46.0539H28.3157ZM28.4481 46.9552H13.3587C13.3362 47.0679 13.3108 47.1806 13.2883 47.2904H28.4988L28.4481 46.9552ZM28.5776 47.8538H13.1672C13.1446 47.9693 13.1221 48.0791 13.0996 48.189H28.6311C28.6142 48.0791 28.6002 47.9664 28.5833 47.8538H28.5776ZM28.7016 48.7523H12.9897C12.9634 48.8687 12.9409 48.9814 12.9221 49.0903H28.7523C28.7382 48.9805 28.71 48.8678 28.71 48.7523H28.7016ZM28.8142 49.6509H12.8179C12.7953 49.7692 12.7756 49.8818 12.7559 49.9889H28.8621C28.8508 49.8818 28.8368 49.7692 28.8199 49.6509H28.8142ZM28.9185 50.5522H12.6545C12.6348 50.6733 12.6207 50.786 12.6038 50.8874H28.941C28.9466 50.7888 28.9354 50.6762 28.9241 50.5522H28.9185ZM12.5475 51.4508C12.535 51.4997 12.535 51.5511 12.5475 51.6C12.6235 51.6761 22.7329 51.5212 27.0397 51.4508H12.5475Z" fill="#030402"/>
<path d="M19.9386 33.1081C18.8401 34.6151 13.2066 40.8429 12.9982 41.4204C12.7897 41.9978 14.0939 43.2738 14.0713 43.5132C13.9868 44.4878 11.8827 50.972 11.0405 50.3128C9.93071 49.4453 5.23237 43.2315 5.89712 40.5415C6.56187 37.8515 17.5331 31.3927 19.2739 30.8322C21.0146 30.2716 21.0231 31.6209 19.9386 33.1081Z" fill="#AD6359"/>
<path d="M15.5133 38.7785L12.3135 34.2858C12.3135 34.2858 15.8936 31.9366 18.2878 30.9338C20.6821 29.9311 21.8623 30.4888 19.6737 33.5844C18.3943 35.3991 17.0049 37.1337 15.5133 38.7785Z" fill="#477C5E"/>
<path d="M13.2591 33.9929C13.7661 34.5807 14.2591 35.1816 14.7379 35.7956C14.9745 36.097 15.2139 36.3956 15.4421 36.7026C15.6702 37.0097 15.8956 37.3533 16.135 37.6688C16.1519 37.6913 16.1181 37.7195 16.1012 37.697C15.859 37.4153 15.5998 37.1336 15.3576 36.8238C15.1153 36.5139 14.8675 36.2041 14.6252 35.8942C14.1464 35.2802 13.6816 34.652 13.2338 34.0155C13.2169 33.9986 13.245 33.976 13.2591 33.9929Z" fill="#263238"/>
<path d="M15.5068 38.8007C15.997 38.15 16.5744 37.5698 17.1039 36.9529C17.6335 36.3361 18.1602 35.6995 18.6644 35.0573C18.6644 35.0573 18.701 35.0573 18.6898 35.0742C18.456 35.4093 18.2278 35.7474 17.9828 36.0741C17.8617 36.2347 17.7349 36.3924 17.6053 36.5501L17.794 36.3952C17.9871 36.2501 18.1874 36.1147 18.394 35.9896C18.394 35.9896 18.4166 35.9896 18.394 36.0065C18.2148 36.1724 18.0267 36.3284 17.8307 36.4741C17.6898 36.5811 17.549 36.6797 17.3997 36.7783L17.1744 37.06C16.6827 37.6946 16.135 38.2838 15.5378 38.8204C15.5209 38.8458 15.4899 38.8204 15.5068 38.8007Z" fill="#263238"/>
<path d="M13.7964 52.7751C14.5485 52.2652 13.5147 51.6681 13.5147 51.6681C13.5147 51.6681 15.2048 52.1695 15.7681 51.3441C16.3315 50.5188 15.047 49.871 14.9569 49.8203C15.047 49.8485 16.6132 50.2653 17.1033 49.3781C17.5934 48.4908 16.2188 47.995 16.1287 47.9697C16.2216 47.9697 17.4413 47.9162 17.661 47.1556C18.0356 45.8515 14.5316 45.6994 13.7767 44.9022C13.7767 44.9022 14.1147 43.1784 14.1429 43.1305C13.9162 43.5173 13.5645 43.8154 13.1457 43.9755C12.388 44.1896 11.7064 44.3135 11.3993 44.6769C11.2561 44.8359 11.1678 45.0367 11.1475 45.2498C11.1272 45.4628 11.176 45.6768 11.2867 45.8599C11.2867 45.8599 10.329 45.7501 9.92055 46.4374C9.71211 46.7895 10.0924 47.4401 10.0924 47.4401C9.87565 47.4246 9.65884 47.469 9.46561 47.5683C9.27238 47.6677 9.11015 47.8182 8.99665 48.0035C8.73469 48.5105 9.15721 49.0823 9.15721 49.0823C9.15721 49.0823 8.39105 49.364 8.29246 49.9724C8.10374 51.192 12.1852 53.8623 13.7964 52.7751Z" fill="#AD6359"/>
<path d="M9.22336 49.186C9.22336 49.186 9.19237 49.186 9.20364 49.2058C10.3712 50.4635 11.8941 51.336 13.5696 51.707C13.6231 51.707 13.6626 51.6338 13.6062 51.6113C12.0355 51.0195 10.5591 50.2025 9.22336 49.186Z" fill="#263238"/>
<path d="M10.0801 47.4284C10.0782 47.4269 10.0761 47.4258 10.0738 47.4252C10.0716 47.4245 10.0692 47.4243 10.0668 47.4245C10.0645 47.4248 10.0622 47.4255 10.0601 47.4267C10.058 47.4278 10.0562 47.4294 10.0547 47.4312C10.0533 47.4331 10.0522 47.4352 10.0515 47.4375C10.0508 47.4397 10.0506 47.4421 10.0509 47.4445C10.0512 47.4468 10.0519 47.4491 10.053 47.4512C10.0542 47.4532 10.0557 47.4551 10.0575 47.4566C11.3592 48.829 13.1084 49.6911 14.9897 49.8874C15.0545 49.8874 15.1193 49.8311 15.0432 49.8198C13.7813 49.6283 11.3195 48.3974 10.0801 47.4284Z" fill="#263238"/>
<path d="M16.2794 47.927C14.4428 47.7185 12.857 46.9411 11.3444 45.9102C11.3247 45.9102 11.3078 45.9242 11.319 45.9411C11.9218 46.6481 12.9556 47.2059 13.7978 47.572C14.5712 47.9261 15.424 48.0708 16.2709 47.9917C16.316 47.9889 16.316 47.9326 16.2794 47.927Z" fill="#263238"/>
<path d="M9.11958 49.0823C8.96658 48.9283 8.85927 48.7349 8.80954 48.5236C8.75982 48.3122 8.76964 48.0913 8.8379 47.8852C8.92613 47.6912 9.08105 47.5353 9.2745 47.4458C9.50508 47.366 9.75164 47.3438 9.99277 47.381C9.85832 47.1915 9.78447 46.9657 9.78095 46.7334C9.77743 46.5011 9.84441 46.2731 9.97305 46.0797C10.1173 45.9142 10.3183 45.8087 10.5364 45.7839C10.7854 45.7597 11.0364 45.7692 11.2828 45.8121C11.1802 45.6912 11.1071 45.5481 11.0695 45.3941C11.0318 45.24 11.0306 45.0794 11.066 44.9248C11.1126 44.7569 11.1981 44.6024 11.3155 44.4737C11.433 44.345 11.5791 44.2457 11.742 44.184C12.1252 44.0452 12.5231 43.9507 12.9278 43.9023C13.1356 43.8712 13.3389 43.8154 13.5334 43.7361C13.7431 43.6401 13.9188 43.4831 14.0376 43.2854C14.0602 43.2516 14.0602 43.2854 14.0376 43.3164C13.9587 43.4507 13.8578 43.5706 13.7391 43.6713C13.6157 43.7787 13.4783 43.8688 13.3306 43.9389C12.964 44.0772 12.5873 44.1874 12.2039 44.2685C11.8678 44.358 11.5708 44.556 11.3589 44.8318C11.2621 44.9778 11.2076 45.1477 11.2017 45.3228C11.1957 45.4978 11.2384 45.6711 11.3251 45.8233C11.3251 45.8233 11.3251 45.8599 11.2997 45.8571C11.0748 45.8562 10.8507 45.8826 10.6322 45.936C10.4509 45.9793 10.2876 46.0777 10.1646 46.2177C10.0506 46.3962 9.98546 46.6014 9.97557 46.8129C9.96569 47.0245 10.0114 47.2349 10.1083 47.4232C9.86534 47.4395 9.62754 47.5006 9.40689 47.6035C9.26363 47.6916 9.14836 47.8186 9.07451 47.9697C8.99014 48.1438 8.95573 48.3378 8.97513 48.5303C8.99452 48.7227 9.06696 48.9061 9.18436 49.0598C9.18544 49.0644 9.18544 49.0692 9.18436 49.0739C9.18436 49.0739 8.9393 49.1753 8.92804 49.1753C8.98991 49.1404 9.05388 49.1093 9.11958 49.0823Z" fill="#263238"/>
<path d="M23.1014 33.0492C22.2057 33.3787 20.4537 32.1591 19.6903 31.0944C19.6396 31.0211 19.5889 27.8523 19.5157 27.2269C19.4988 27.0974 23.5634 27.7114 23.5634 27.7114C23.4334 28.5215 23.4031 29.3445 23.4732 30.162C23.4845 30.2521 23.9661 32.7337 23.1014 33.0492Z" fill="#AD6359"/>
<path d="M23.5634 27.7115C23.5634 27.7115 23.5183 27.9735 23.4817 28.3622C22.355 29.7452 20.5466 29.8917 19.6283 29.8607C19.5974 28.8776 19.5607 27.6073 19.5157 27.227C19.4988 27.1003 23.5634 27.7115 23.5634 27.7115Z" fill="#263238"/>
<path d="M19.5339 20.4753C19.5339 20.4753 18.2382 20.9767 17.9734 22.2724C17.7087 23.5681 17.9734 24.9427 18.0805 25.0131C18.1875 25.0836 19.5339 20.4753 19.5339 20.4753Z" fill="#263238"/>
<path d="M24.7657 22.148C25.0981 23.5761 24.0897 27.5731 23.0306 28.4068C21.4983 29.618 19.121 29.5842 18.1238 27.7731C17.1605 26.0182 18.5689 20.8354 19.7378 20.089C21.4561 18.9932 24.2672 20.0354 24.7657 22.148Z" fill="#AD6359"/>
<path d="M20.7484 24.3929C20.7484 24.3929 20.7681 24.4098 20.7653 24.4211C20.709 24.7028 20.6892 25.0211 20.9259 25.1563C20.9259 25.1563 20.9259 25.1732 20.9259 25.1704C20.6216 25.0746 20.6498 24.6436 20.7484 24.3929Z" fill="#263238"/>
<path d="M21.0434 24.1453C21.4969 24.1875 21.3758 25.0889 20.9589 25.0494C20.542 25.01 20.666 24.1086 21.0434 24.1453Z" fill="#263238"/>
<path d="M19.1747 24.1144C19.1747 24.1144 19.1522 24.1144 19.1494 24.1369C19.124 24.4186 19.048 24.7312 18.7832 24.7932V24.8101C19.0987 24.8045 19.1944 24.382 19.1747 24.1144Z" fill="#263238"/>
<path d="M18.963 23.7907C18.5179 23.7005 18.3687 24.5963 18.7827 24.6808C19.1968 24.7653 19.3348 23.8667 18.963 23.7907Z" fill="#263238"/>
<path d="M20.6841 26.7224C20.6109 26.7816 20.5349 26.8661 20.4335 26.8661C20.3292 26.8552 20.2285 26.8226 20.1377 26.7703C20.1722 26.8291 20.2223 26.8774 20.2824 26.9097C20.3425 26.9419 20.4104 26.9571 20.4785 26.9534C20.5379 26.946 20.5934 26.9199 20.6369 26.8789C20.6805 26.8379 20.7099 26.784 20.7208 26.7252C20.7208 26.7252 20.6954 26.7083 20.6841 26.7224Z" fill="#263238"/>
<path d="M19.3797 25.4384C19.3797 25.4384 19.2614 25.844 19.2333 26.0412C19.6162 26.0972 19.9891 26.2082 20.3403 26.3708C20.4219 26.4102 20.4332 26.3398 20.3403 26.2665C20.0782 26.0537 19.7583 25.9242 19.422 25.8947C19.422 25.8384 19.6163 25.2722 19.5854 25.2638C19.4332 25.255 19.2806 25.2673 19.1319 25.3004C19.3516 24.4554 19.6952 23.6329 19.9149 22.7653C19.9149 22.7343 19.8783 22.7174 19.8642 22.7428C19.4578 23.603 19.137 24.5012 18.9065 25.4243C18.8699 25.5483 19.2952 25.4609 19.3797 25.4384Z" fill="#263238"/>
<path d="M21.3863 23.8385C21.2793 23.7709 21.1948 23.6892 21.1046 23.6131C21.0145 23.5371 20.8962 23.4666 20.854 23.3314C20.8449 23.2907 20.8501 23.2482 20.8685 23.2108C20.8869 23.1734 20.9176 23.1434 20.9554 23.1258C21.0346 23.0999 21.1194 23.0959 21.2007 23.1142C21.282 23.1326 21.3569 23.1726 21.4173 23.23C21.5596 23.3256 21.6603 23.4715 21.699 23.6385C21.7064 23.6777 21.7019 23.7182 21.6861 23.7549C21.6703 23.7915 21.6439 23.8226 21.6102 23.8441C21.5766 23.8656 21.5373 23.8766 21.4974 23.8756C21.4575 23.8746 21.4188 23.8616 21.3863 23.8385Z" fill="#263238"/>
<path d="M18.7685 22.7989C18.8924 22.7791 19.0051 22.7453 19.1262 22.7143C19.2567 22.7032 19.3796 22.6486 19.4755 22.5594C19.5006 22.5262 19.5142 22.4856 19.5142 22.4439C19.5142 22.4023 19.5006 22.3617 19.4755 22.3285C19.4137 22.2722 19.3381 22.2335 19.2564 22.2162C19.1748 22.1988 19.0899 22.2036 19.0107 22.2299C18.8414 22.2582 18.6888 22.3486 18.5826 22.4834C18.5611 22.5151 18.5491 22.5523 18.5479 22.5906C18.5468 22.6289 18.5565 22.6668 18.5759 22.6998C18.5954 22.7328 18.6238 22.7596 18.6579 22.7772C18.6919 22.7947 18.7303 22.8022 18.7685 22.7989Z" fill="#263238"/>
<path d="M24.1015 25.5622C23.2733 25.4805 23.724 21.8272 23.724 21.8272C23.2128 22.0013 22.678 22.0963 22.1382 22.1089C21.5927 22.0897 21.0512 22.0084 20.5242 21.8666C20.4115 21.8244 21.9072 21.4019 21.9072 21.4019C21.9072 21.4019 18.2285 21.723 18.1046 21.03C18.0595 20.7906 18.744 18.6104 21.7973 18.7485C24.0508 18.8499 25.1014 21.2047 25.1014 21.2047C25.1014 21.2047 26.1971 22.4243 26.0084 22.9764C25.6873 23.9454 24.9803 25.6495 24.1015 25.5622Z" fill="#263238"/>
<path d="M23.6001 25.5819C23.6001 25.5819 24.6282 24.3538 25.1944 24.7369C25.7605 25.12 24.9127 26.948 24.186 27.148C24.0954 27.1795 23.9995 27.1924 23.9038 27.1859C23.8082 27.1794 23.7149 27.1537 23.6294 27.1103C23.5439 27.0669 23.4681 27.0067 23.4064 26.9334C23.3448 26.86 23.2985 26.7749 23.2705 26.6833L23.6001 25.5819Z" fill="#AD6359"/>
<path d="M37.3198 42.3587C39.607 40.5926 37.4212 31.6269 36.0917 28.3256C35.7002 27.3539 29.4893 29.1707 29.7794 30.2607C31.4385 36.4266 34.8157 44.2938 37.3198 42.3587Z" fill="#AD6359"/>
<path d="M30.8096 33.6436L31.494 35.3336C31.7278 35.897 31.956 36.4603 32.2095 37.0237C32.463 37.587 32.7081 38.1306 32.9672 38.6799C33.2263 39.2292 33.5137 39.7672 33.7953 40.308C33.439 39.8117 33.1144 39.2933 32.8236 38.756C32.5419 38.218 32.2602 37.6659 32.0151 37.1082C31.7701 36.5504 31.5447 35.9815 31.3419 35.4012C31.1391 34.821 30.9645 34.2379 30.8096 33.6436Z" fill="#263238"/>
<path d="M30.4052 15.8226C30.4324 16.1394 30.365 16.4571 30.2117 16.7357C30.0584 17.0142 29.8259 17.241 29.5438 17.3875C29.2616 17.534 28.9423 17.5936 28.6262 17.5587C28.3102 17.5238 28.0116 17.3961 27.7682 17.1915C27.5247 16.987 27.3473 16.715 27.2585 16.4097C27.1696 16.1044 27.1732 15.7796 27.2688 15.4764C27.3644 15.1732 27.5477 14.9051 27.7956 14.706C28.0435 14.5069 28.3449 14.3858 28.6616 14.3579C28.8723 14.3393 29.0846 14.3625 29.2863 14.4261C29.4881 14.4897 29.6753 14.5925 29.8372 14.7286C29.9992 14.8646 30.1327 15.0313 30.2302 15.219C30.3276 15.4067 30.3871 15.6118 30.4052 15.8226Z" fill="white"/>
<path d="M30.4035 15.8224C30.4384 16.2537 30.3065 16.6819 30.0351 17.0189C29.7636 17.3558 29.3733 17.5758 28.9445 17.6335C28.7109 17.6804 28.4701 17.6774 28.2379 17.6247C28.0056 17.572 27.7871 17.4707 27.5967 17.3277C27.4063 17.1846 27.2483 17.0029 27.133 16.7945C27.0177 16.5861 26.9478 16.3556 26.9278 16.1183C26.9079 15.881 26.9383 15.6421 27.0171 15.4173C27.0959 15.1926 27.2213 14.987 27.3851 14.8141C27.5489 14.6412 27.7474 14.5049 27.9676 14.4141C28.1878 14.3233 28.4247 14.2801 28.6628 14.2872C29.0941 14.2725 29.5147 14.4233 29.8383 14.7087C30.162 14.9942 30.3642 15.3926 30.4035 15.8224ZM30.4035 15.8224C30.3855 15.6152 30.3257 15.4138 30.2278 15.2303C30.1299 15.0468 29.9958 14.885 29.8337 14.7547C29.6715 14.6245 29.4847 14.5284 29.2845 14.4722C29.0842 14.4161 28.8746 14.4011 28.6684 14.4281C28.2741 14.4787 27.9147 14.6798 27.6652 14.9893C27.4157 15.2988 27.2955 15.6927 27.3297 16.0888C27.3639 16.4848 27.5498 16.8523 27.8487 17.1145C28.1475 17.3767 28.5361 17.5132 28.9332 17.4955C29.1412 17.4868 29.3452 17.436 29.533 17.3462C29.7209 17.2565 29.8885 17.1296 30.026 16.9732C30.1634 16.8168 30.2677 16.6342 30.3326 16.4364C30.3975 16.2386 30.4216 16.0298 30.4035 15.8224Z" fill="#263238"/>
<path d="M26.9054 18.7886C26.9204 18.9651 26.8827 19.1421 26.7971 19.2971C26.7115 19.4522 26.5818 19.5784 26.4245 19.6598C26.2672 19.7412 26.0893 19.7741 25.9133 19.7544C25.7372 19.7347 25.571 19.6632 25.4356 19.5491C25.3002 19.4349 25.2016 19.2832 25.1524 19.113C25.1032 18.9428 25.1056 18.7619 25.1592 18.5931C25.2128 18.4243 25.3153 18.2752 25.4536 18.1646C25.592 18.054 25.76 17.9869 25.9365 17.9718C26.0538 17.9613 26.1721 17.9742 26.2844 18.0097C26.3967 18.0452 26.5009 18.1026 26.591 18.1785C26.6811 18.2544 26.7552 18.3474 26.8092 18.4521C26.8632 18.5568 26.8959 18.6712 26.9054 18.7886Z" fill="white"/>
<path d="M26.9056 18.788C26.9215 18.9813 26.8787 19.1749 26.783 19.3436C26.6873 19.5123 26.543 19.6483 26.369 19.7339C26.1949 19.8194 25.9992 19.8506 25.8071 19.8234C25.6151 19.7962 25.4357 19.7118 25.2923 19.5813C25.1489 19.4507 25.0481 19.28 25.003 19.0913C24.9579 18.9027 24.9707 18.7049 25.0396 18.5236C25.1085 18.3423 25.2304 18.1859 25.3894 18.0748C25.5484 17.9638 25.7371 17.9031 25.931 17.9008C26.1751 17.8998 26.4106 17.9904 26.5911 18.1547C26.7715 18.319 26.8838 18.545 26.9056 18.788ZM26.9056 18.788C26.8964 18.6738 26.8634 18.5627 26.8088 18.4618C26.7542 18.361 26.6792 18.2727 26.5885 18.2024C26.4979 18.1322 26.3936 18.0816 26.2824 18.0539C26.1711 18.0263 26.0553 18.0221 25.9423 18.0416C25.7837 18.0684 25.6363 18.1409 25.5182 18.2501C25.4001 18.3593 25.3164 18.5006 25.2772 18.6566C25.2381 18.8126 25.2453 18.9767 25.2978 19.1287C25.3504 19.2808 25.4461 19.4142 25.5733 19.5127C25.7004 19.6113 25.8535 19.6706 26.0139 19.6836C26.1742 19.6965 26.3348 19.6625 26.4762 19.5856C26.6175 19.5087 26.7333 19.3924 26.8096 19.2507C26.8859 19.1091 26.9193 18.9483 26.9056 18.788Z" fill="#263238"/>
<path d="M42.4208 8.34117C42.5703 9.57773 42.223 10.8231 41.4552 11.8038C40.6873 12.7845 39.5616 13.4204 38.3252 13.5719C37.5116 13.6732 36.6856 13.5575 35.931 13.2367C35.5629 13.7185 35.0887 14.1089 34.5452 14.3776C34.0018 14.6464 33.4036 14.7862 32.7974 14.7862C32.1911 14.7862 31.5929 14.6464 31.0495 14.3776C30.506 14.1089 30.0318 13.7185 29.6637 13.2367C29.4905 13.2879 29.3134 13.3246 29.1342 13.3465C28.5208 13.4214 27.8989 13.3168 27.3439 13.0454C26.7888 12.7739 26.3243 12.3473 26.0068 11.8172C25.6893 11.2872 25.5324 10.6764 25.555 10.0589C25.5776 9.44142 25.7789 8.84376 26.1343 8.33835C25.4421 7.4577 25.0874 6.35872 25.134 5.23957C25.1805 4.12042 25.6254 3.05474 26.3884 2.23466C27.1514 1.41459 28.1823 0.894079 29.2951 0.766987C30.408 0.639895 31.5297 0.914582 32.4579 1.54152C32.8933 1.00017 33.464 0.583439 34.1122 0.333506C34.7604 0.0835736 35.4631 0.00930949 36.1492 0.11823C36.8353 0.22715 37.4804 0.515389 38.0194 0.953775C38.5583 1.39216 38.9718 1.96513 39.2181 2.6147C39.3827 2.55935 39.5527 2.52159 39.7252 2.50203C40.246 2.43961 40.7735 2.53742 41.2373 2.78243C41.7012 3.02744 42.0793 3.408 42.3213 3.87339C42.5633 4.33879 42.6578 4.86689 42.592 5.38732C42.5262 5.90775 42.3034 6.39576 41.9532 6.78632C42.1995 7.273 42.3578 7.79938 42.4208 8.34117Z" fill="white"/>
<path d="M42.4197 8.34103C42.5661 9.57717 42.2235 10.8216 41.4648 11.8085C41.2105 12.1299 40.9172 12.4185 40.5916 12.6676C39.9323 13.1666 39.1543 13.4851 38.3344 13.5918C37.5144 13.6985 36.6809 13.5896 35.9158 13.276H35.9609C35.5907 13.767 35.1122 14.1658 34.5625 14.4414C34.0128 14.717 33.4069 14.8618 32.792 14.8646C32.1743 14.8668 31.5642 14.7271 31.009 14.4562C30.4541 14.1806 29.968 13.784 29.5866 13.2957L29.688 13.3295C29.0326 13.5274 28.332 13.5176 27.6824 13.3013C27.0299 13.086 26.4614 12.6712 26.0572 12.1155C25.8593 11.8361 25.7028 11.5297 25.5924 11.2057C25.4868 10.8798 25.4308 10.5398 25.4262 10.1973C25.4201 9.50684 25.6288 8.83158 26.0234 8.26498V8.42272C25.3029 7.52072 24.9354 6.38729 24.9896 5.23415C25.0202 4.37518 25.2814 3.54027 25.7458 2.81703C26.2102 2.09379 26.8607 1.50888 27.6291 1.12369C28.3975 0.738498 29.2554 0.567219 30.1127 0.627828C30.9701 0.688436 31.7954 0.978697 32.5019 1.46815L32.378 1.48505C32.8253 0.934421 33.4104 0.511991 34.0738 0.260671C34.7372 0.00935079 35.4554 -0.0619054 36.1552 0.054141C36.8509 0.169562 37.5037 0.466582 38.0478 0.915177C38.5918 1.36377 39.0078 1.94804 39.2537 2.60894L39.217 2.58922C39.7675 2.41021 40.3616 2.41814 40.9071 2.61175C41.3081 2.75517 41.6676 2.99532 41.9535 3.31091C42.2395 3.6265 42.4432 4.00778 42.5466 4.42094C42.65 4.8341 42.6498 5.26639 42.5461 5.67946C42.4424 6.09254 42.2384 6.47365 41.9521 6.789C42.1986 7.27459 42.3569 7.80009 42.4197 8.34103ZM42.4197 8.34103C42.3532 7.79942 42.1911 7.27391 41.9408 6.789C42.3236 6.36878 42.5555 5.83301 42.5999 5.26631C42.6443 4.69961 42.4986 4.13427 42.1859 3.65959C41.8767 3.18621 41.419 2.82894 40.8847 2.64387C40.3504 2.4588 39.7697 2.45642 39.2339 2.63711H39.2058V2.60894C38.9558 1.96943 38.5431 1.40628 38.0087 0.97522C37.4739 0.544906 36.8342 0.264887 36.1552 0.163994C35.4794 0.0630651 34.789 0.140753 34.1525 0.389335C33.52 0.640485 32.9651 1.05446 32.5442 1.58927L32.4906 1.65688L32.4174 1.60617C31.5107 1.00189 30.4186 0.739986 29.3365 0.867317C28.2543 0.994648 27.2528 1.50291 26.5112 2.30114C25.7695 3.09937 25.3361 4.13548 25.2885 5.22404C25.241 6.3126 25.5823 7.38256 26.2515 8.24245L26.3135 8.32132L26.2543 8.403C25.8863 8.92249 25.6894 9.54376 25.691 10.1804C25.6955 10.4967 25.7457 10.8108 25.8403 11.1127C25.939 11.4141 26.0824 11.6989 26.2656 11.9577C26.6384 12.4791 27.1636 12.872 27.769 13.0823C28.3743 13.2927 29.03 13.3102 29.6457 13.1323L29.7105 13.1154L29.7471 13.1661C30.1055 13.6381 30.5658 14.0232 31.0935 14.2928C31.8971 14.6999 32.8173 14.8146 33.6961 14.6172C34.575 14.4199 35.3578 13.9227 35.9102 13.2112L35.9299 13.1859H35.9581C36.7086 13.5105 37.5317 13.631 38.3438 13.5351C39.1608 13.4347 39.9375 13.1231 40.5973 12.6309C40.9223 12.3866 41.2156 12.1028 41.4704 11.7859C41.7206 11.4618 41.9297 11.1079 42.0929 10.7325C42.4056 9.97666 42.5182 9.15301 42.4197 8.34103Z" fill="#263238"/>
<path d="M34.39 8.48734C34.3841 8.14453 34.4454 7.80387 34.5703 7.48458C34.7273 7.1495 34.9921 6.87675 35.3224 6.70997C35.4379 6.63955 35.5759 6.5635 35.7449 6.47618C35.916 6.38609 36.079 6.28149 36.2322 6.16352C36.3897 6.04374 36.5267 5.89914 36.6378 5.73538C36.749 5.56876 36.807 5.37231 36.804 5.17202C36.8069 5.02582 36.775 4.88101 36.7111 4.74951C36.6532 4.63177 36.5717 4.52724 36.4716 4.44249C36.3699 4.35769 36.2521 4.29444 36.1252 4.25658C35.9951 4.2143 35.8592 4.19245 35.7224 4.19179C35.5659 4.18888 35.4104 4.21862 35.2661 4.27911C35.134 4.3335 35.0098 4.40551 34.8971 4.49319C34.7917 4.58127 34.6972 4.68149 34.6154 4.79176C34.5346 4.8911 34.4603 4.99554 34.3929 5.10442L33.4014 4.41995C33.4975 4.19122 33.6307 3.97994 33.7957 3.79463C33.9544 3.61191 34.1407 3.45509 34.3478 3.32987C34.5591 3.20531 34.7866 3.11052 35.0238 3.04819C35.2692 2.98348 35.5221 2.95128 35.7759 2.95242C36.062 2.9539 36.3465 2.99563 36.6209 3.07636C36.8972 3.1588 37.1547 3.2947 37.3786 3.47634C37.6093 3.66679 37.7958 3.90516 37.9251 4.17489C38.0709 4.49459 38.1422 4.84326 38.1335 5.19456C38.1369 5.41161 38.1085 5.628 38.049 5.83678C37.995 6.01782 37.9123 6.18901 37.804 6.34379C37.6973 6.49645 37.5714 6.63468 37.4293 6.75504C37.2749 6.88439 37.1111 7.00208 36.9392 7.10713L36.4829 7.36909C36.3367 7.45042 36.1982 7.54468 36.0688 7.65077C35.944 7.7481 35.8381 7.86742 35.7562 8.00286C35.6714 8.1499 35.6294 8.31771 35.6351 8.48734H34.39ZM34.4126 11.1407V9.56898H35.6745V11.1407H34.4126Z" fill="#477C5E"/>
<path d="M31.5701 5.5471C31.6481 5.88067 31.6577 6.22658 31.5983 6.56395C31.5179 6.92264 31.3195 7.24399 31.0349 7.47658C30.9363 7.56672 30.8152 7.67094 30.6687 7.79206C30.5197 7.91558 30.3812 8.05125 30.2547 8.19767C30.1256 8.3469 30.0219 8.51627 29.9476 8.69905C29.8732 8.88518 29.8575 9.08961 29.9026 9.28494C29.9281 9.42769 29.9881 9.56207 30.0772 9.67647C30.158 9.78081 30.2597 9.86715 30.3758 9.92997C30.4927 9.99261 30.6211 10.0309 30.7532 10.0426C30.8897 10.055 31.0273 10.0475 31.1617 10.0201C31.315 9.99072 31.4607 9.93034 31.5898 9.84265C31.7077 9.76295 31.8147 9.66826 31.9081 9.56098C31.9983 9.45339 32.0749 9.33514 32.1363 9.20888C32.1939 9.09462 32.2446 8.97705 32.2884 8.85679L33.3982 9.32437C33.3528 9.56824 33.2661 9.80258 33.1418 10.0173C33.0214 10.2271 32.8694 10.4171 32.6912 10.5806C32.5103 10.7466 32.3075 10.8869 32.0884 10.9975C31.8619 11.1114 31.6213 11.1947 31.3729 11.2454C31.0898 11.3056 30.7994 11.3236 30.511 11.2989C30.2238 11.2774 29.944 11.1979 29.6885 11.0651C29.4249 10.9276 29.1935 10.7355 29.0097 10.5018C28.6771 10.0359 28.5131 9.47058 28.5449 8.89904C28.5605 8.71175 28.6062 8.52819 28.6801 8.35541C28.7524 8.18406 28.8472 8.02304 28.9618 7.87656C29.086 7.71765 29.2215 7.56797 29.3674 7.4287C29.497 7.31039 29.6293 7.19209 29.7589 7.07942C29.8841 6.96767 29.9983 6.8441 30.0997 6.71042C30.1988 6.58844 30.2759 6.45027 30.3279 6.30199C30.3793 6.14052 30.3851 5.96801 30.3448 5.80343L31.5701 5.5471ZM31.0067 2.95569L31.3307 4.49364L30.0941 4.75278L29.7702 3.21483L31.0067 2.95569Z" fill="#477C5E"/>
</svg>
