<svg width="32" height="32" viewBox="0 0 32 32" fill="none" xmlns="http://www.w3.org/2000/svg">
<circle cx="16" cy="16" r="16" fill="#3EB7B7"/>
<path d="M20.9374 12.5917C20.9108 12.5917 20.8931 12.5917 20.8665 12.5917H20.8223C19.1488 12.5417 17.9004 11.3251 17.9004 9.82505C17.9004 8.29172 19.2285 7.05005 20.8488 7.05005C22.4691 7.05005 23.7973 8.30005 23.7973 9.82505C23.7884 11.3334 22.54 12.5501 20.9462 12.6001C20.9462 12.5917 20.9462 12.5917 20.9374 12.5917ZM20.8488 8.29172C19.9546 8.29172 19.2285 8.97505 19.2285 9.81672C19.2285 10.6417 19.9103 11.3084 20.7869 11.3417C20.7957 11.3334 20.8665 11.3334 20.9462 11.3417C21.8051 11.3001 22.4691 10.6334 22.478 9.81672C22.478 8.97505 21.752 8.29172 20.8488 8.29172Z" fill="#FAFAFA"/>
<path d="M20.9464 18.7334C20.601 18.7334 20.2557 18.7084 19.9104 18.65C19.5474 18.5917 19.3083 18.2667 19.3703 17.925C19.4323 17.5834 19.7776 17.3584 20.1406 17.4167C21.2297 17.5917 22.3807 17.4 23.151 16.9167C23.5672 16.6584 23.7885 16.3334 23.7885 16.0084C23.7885 15.6834 23.5583 15.3667 23.151 15.1084C22.3807 14.625 21.212 14.4334 20.1141 14.6167C19.751 14.6834 19.4057 14.45 19.3438 14.1084C19.2818 13.7667 19.5208 13.4417 19.8839 13.3834C21.3271 13.1417 22.8234 13.4 23.8859 14.0667C24.6651 14.5584 25.1167 15.2584 25.1167 16.0084C25.1167 16.75 24.674 17.4584 23.8859 17.9584C23.0802 18.4584 22.0354 18.7334 20.9464 18.7334Z" fill="#FAFAFA"/>
<path d="M10.2857 12.5916C10.2769 12.5916 10.268 12.5916 10.268 12.5916C8.67428 12.5416 7.42585 11.325 7.41699 9.82496C7.41699 8.29162 8.74512 7.04163 10.3654 7.04163C11.9857 7.04163 13.3139 8.29163 13.3139 9.81663C13.3139 11.325 12.0654 12.5416 10.4717 12.5916L10.2857 11.9666L10.3477 12.5916C10.33 12.5916 10.3035 12.5916 10.2857 12.5916ZM10.3743 11.3416C10.4274 11.3416 10.4717 11.3416 10.5248 11.35C11.3128 11.3166 12.0035 10.65 12.0035 9.82496C12.0035 8.98329 11.2774 8.29995 10.3831 8.29995C9.48887 8.29995 8.76283 8.98329 8.76283 9.82496C8.76283 10.6416 9.43574 11.3 10.2946 11.35C10.3035 11.3416 10.3389 11.3416 10.3743 11.3416Z" fill="#FAFAFA"/>
<path d="M10.2768 18.7334C9.18769 18.7334 8.1429 18.4584 7.33717 17.9584C6.55801 17.4667 6.10645 16.7584 6.10645 16.0084C6.10645 15.2667 6.55801 14.5584 7.33717 14.0667C8.39967 13.4 9.89603 13.1417 11.3393 13.3834C11.7023 13.4417 11.9413 13.7667 11.8794 14.1084C11.8174 14.45 11.4721 14.6834 11.1091 14.6167C10.0111 14.4334 8.85124 14.625 8.07207 15.1084C7.65593 15.3667 7.43457 15.6834 7.43457 16.0084C7.43457 16.3334 7.66478 16.6584 8.07207 16.9167C8.84238 17.4 9.99342 17.5917 11.0825 17.4167C11.4455 17.3584 11.7908 17.5917 11.8528 17.925C11.9148 18.2667 11.6757 18.5917 11.3127 18.65C10.9674 18.7084 10.6221 18.7334 10.2768 18.7334Z" fill="#FAFAFA"/>
<path d="M15.6249 18.8167C15.5983 18.8167 15.5806 18.8167 15.554 18.8167H15.5098C13.8363 18.7667 12.5879 17.55 12.5879 16.05C12.5879 14.5167 13.916 13.275 15.5363 13.275C17.1566 13.275 18.4848 14.525 18.4848 16.05C18.4759 17.5584 17.2275 18.775 15.6337 18.825C15.6337 18.8167 15.6337 18.8167 15.6249 18.8167ZM15.5363 14.5167C14.6421 14.5167 13.916 15.2 13.916 16.0417C13.916 16.8667 14.5978 17.5334 15.4744 17.5667C15.4832 17.5584 15.554 17.5584 15.6337 17.5667C16.4926 17.525 17.1566 16.8584 17.1655 16.0417C17.1655 15.2084 16.4395 14.5167 15.5363 14.5167Z" fill="#FAFAFA"/>
<path d="M15.6245 24.9666C14.562 24.9666 13.4995 24.7083 12.676 24.1833C11.8969 23.6916 11.4453 22.9916 11.4453 22.2416C11.4453 21.4999 11.888 20.7833 12.676 20.2916C14.3318 19.2583 16.926 19.2583 18.5729 20.2916C19.3521 20.7833 19.8036 21.4833 19.8036 22.2333C19.8036 22.9749 19.3609 23.6916 18.5729 24.1833C17.7495 24.6999 16.687 24.9666 15.6245 24.9666ZM13.4109 21.3416C12.9948 21.5999 12.7734 21.9249 12.7734 22.2499C12.7734 22.5749 13.0036 22.8916 13.4109 23.1499C14.6063 23.9083 16.6339 23.9083 17.8292 23.1499C18.2453 22.8916 18.4667 22.5666 18.4667 22.2416C18.4667 21.9166 18.2365 21.5999 17.8292 21.3416C16.6427 20.5833 14.6151 20.5916 13.4109 21.3416Z" fill="#FAFAFA"/>
</svg>
