<svg width="14" height="14" viewBox="0 0 14 14" fill="none" xmlns="http://www.w3.org/2000/svg">
<path d="M9.91699 11.9584H4.08366C2.33366 11.9584 1.16699 11.0834 1.16699 9.04169V4.95835C1.16699 2.91669 2.33366 2.04169 4.08366 2.04169H9.91699C11.667 2.04169 12.8337 2.91669 12.8337 4.95835V9.04169C12.8337 11.0834 11.667 11.9584 9.91699 11.9584Z" stroke="#DADFDD" stroke-width="1.5" stroke-miterlimit="10" stroke-linecap="round" stroke-linejoin="round"/>
<path d="M7 8.75C7.9665 8.75 8.75 7.9665 8.75 7C8.75 6.0335 7.9665 5.25 7 5.25C6.0335 5.25 5.25 6.0335 5.25 7C5.25 7.9665 6.0335 8.75 7 8.75Z" stroke="#DADFDD" stroke-width="1.5" stroke-miterlimit="10" stroke-linecap="round" stroke-linejoin="round"/>
<path d="M4.95833 3.5H4.08333C3.27833 3.5 2.625 4.15333 2.625 4.95833V5.83333" stroke="#DADFDD" stroke-width="1.5" stroke-miterlimit="10" stroke-linecap="round" stroke-linejoin="round"/>
<path d="M9.04199 3.5H9.91699C10.722 3.5 11.3753 4.15333 11.3753 4.95833V5.83333" stroke="#DADFDD" stroke-width="1.5" stroke-miterlimit="10" stroke-linecap="round" stroke-linejoin="round"/>
<path d="M4.95833 10.5H4.08333C3.27833 10.5 2.625 9.84669 2.625 9.04169V8.16669" stroke="#DADFDD" stroke-width="1.5" stroke-miterlimit="10" stroke-linecap="round" stroke-linejoin="round"/>
<path d="M9.04199 10.5H9.91699C10.722 10.5 11.3753 9.84669 11.3753 9.04169V8.16669" stroke="#DADFDD" stroke-width="1.5" stroke-miterlimit="10" stroke-linecap="round" stroke-linejoin="round"/>
</svg>
