<svg width="33" height="32" viewBox="0 0 33 32" fill="none" xmlns="http://www.w3.org/2000/svg">
<circle cx="16.333" cy="16" r="16" fill="#3EB7B7"/>
<rect width="21.25" height="20" transform="translate(5.33301 6)" fill="#3EB7B7"/>
<path d="M13.6482 18.6386V12.7184H13.8392L17.6586 18.4476H17.8496V12.5275M12.6934 14.6282H18.8045M12.6934 16.5379H18.8045" stroke="#FAFAFA" stroke-width="0.833333"/>
<path d="M15.9577 24.3333C11.0161 24.3333 7.06445 20.5613 7.06445 16C7.06445 11.4386 11.0161 7.66663 15.9577 7.66663C11.1331 7.66663 7.14258 11.3696 7.14258 16C7.14258 20.6303 11.1331 24.3333 15.9577 24.3333ZM15.9577 24.3333C20.8943 24.3333 24.8429 20.5689 24.8509 16.0138C24.8428 16.0065 24.8291 16 24.8118 16C24.7946 16 24.7809 16.0065 24.7728 16.0138C24.7648 20.6377 20.7774 24.3333 15.9577 24.3333Z" fill="#FAFAFA" stroke="#FAFAFA" stroke-width="1.25"/>
<path d="M24.7731 8.29163V7.66663H24.8122C24.8294 7.66663 24.8431 7.67317 24.8512 7.68044V10.9861C24.8431 10.9934 24.8294 11 24.8122 11C24.7949 11 24.7812 10.9934 24.7731 10.9861V8.29163Z" fill="#FAFAFA" stroke="#FAFAFA" stroke-width="1.25"/>
<path d="M20.3865 11.8336C20.3765 11.8336 20.3687 11.8322 20.3632 11.8305L24.7726 7.68044L24.3443 7.22532L24.7726 7.68044C24.7746 7.67856 24.7873 7.66907 24.8135 7.66907C24.8222 7.66907 24.8294 7.67011 24.8353 7.67158L20.4274 11.8202C20.4223 11.8249 20.4178 11.8275 20.4128 11.8294C20.4072 11.8316 20.3985 11.8336 20.3865 11.8336Z" fill="#FAFAFA" stroke="#FAFAFA" stroke-width="1.25"/>
</svg>
