<svg width="15" height="13" viewBox="0 0 15 13" fill="none" xmlns="http://www.w3.org/2000/svg">
<path d="M14.3253 6.52749C14.6053 6.52749 14.8327 6.75041 14.8327 7.02563C14.8327 7.3002 14.6053 7.52247 14.3253 7.52247H13.6173V9.89552C13.6173 11.3324 12.426 12.5 10.962 12.5H9.90002C9.61935 12.5 9.39202 12.2771 9.39202 12.0019C9.39202 11.7273 9.61935 11.5044 9.90002 11.5044H10.962C11.8667 11.5044 12.6027 10.7833 12.6027 9.89552V7.52247H10.854V8.1834C10.8607 9.01037 10.184 9.68633 9.34068 9.69418H5.65802C4.81535 9.68633 4.13868 9.01037 4.14535 8.1834V7.52247H2.39668V9.89814C2.39668 10.7826 3.13068 11.5024 4.03268 11.5037L5.11802 11.5044C5.39802 11.5044 5.62535 11.7273 5.62535 12.0019C5.62468 12.2771 5.39802 12.5 5.11735 12.5L4.03135 12.4993C2.57068 12.498 1.38135 11.3311 1.38135 9.89814V7.52247H0.674016C0.394016 7.52247 0.166016 7.3002 0.166016 7.02563C0.166016 6.75041 0.394016 6.52749 0.674016 6.52749H14.3253ZM9.34102 2.99511C9.74435 2.99511 10.1317 3.15396 10.4137 3.43703C10.6977 3.72271 10.855 4.10645 10.8544 4.50588V5.33613C10.851 5.43353 10.7717 5.51263 10.6723 5.51525H4.32568C4.22702 5.51198 4.14768 5.43288 4.14562 5.33613V4.50588C4.13835 3.67891 4.81568 3.0036 5.65835 2.99511H9.34102ZM10.9617 0.500196C12.4264 0.500196 13.6171 1.66776 13.6171 3.10402V4.34154C13.6171 4.6161 13.3904 4.83968 13.1097 4.83968C12.8297 4.83968 12.6024 4.6161 12.6024 4.34154V3.10402C12.6024 2.2169 11.8664 1.49518 10.9617 1.49518H9.89975C9.61975 1.49518 9.39242 1.27291 9.39242 0.998341C9.39242 0.723119 9.61975 0.500196 9.89975 0.500196H10.9617ZM5.11782 0.5C5.39782 0.5 5.62515 0.722923 5.62515 0.998145C5.62515 1.27271 5.39848 1.49564 5.11782 1.49564L4.03182 1.49629C3.13048 1.4976 2.39715 2.21736 2.39715 3.10186V4.34134C2.39715 4.61591 2.16915 4.83948 1.88915 4.83948C1.60915 4.83948 1.38182 4.61591 1.38182 4.34134V3.10186C1.38182 1.66888 2.57048 0.501961 4.03115 0.500654L5.11782 0.5Z" fill="#19201D"/>
</svg>
