<svg width="16" height="12" viewBox="0 0 16 12" fill="none" xmlns="http://www.w3.org/2000/svg">
<path d="M14.8263 6.02749C15.1063 6.02749 15.3337 6.25041 15.3337 6.52563C15.3337 6.8002 15.1063 7.02247 14.8263 7.02247H14.1183V9.39552C14.1183 10.8324 12.927 12 11.463 12H10.401C10.1203 12 9.89299 11.7771 9.89299 11.5019C9.89299 11.2273 10.1203 11.0044 10.401 11.0044H11.463C12.3677 11.0044 13.1037 10.2833 13.1037 9.39552V7.02247H11.355V7.6834C11.3617 8.51037 10.685 9.18633 9.84166 9.19418H6.15899C5.31633 9.18633 4.63966 8.51037 4.64633 7.6834V7.02247H2.89766V9.39814C2.89766 10.2826 3.63166 11.0024 4.53366 11.0037L5.61899 11.0044C5.89899 11.0044 6.12633 11.2273 6.12633 11.5019C6.12566 11.7771 5.89899 12 5.61833 12L4.53233 11.9993C3.07166 11.998 1.88233 10.8311 1.88233 9.39814V7.02247H1.17499C0.894992 7.02247 0.666992 6.8002 0.666992 6.52563C0.666992 6.25041 0.894992 6.02749 1.17499 6.02749H14.8263ZM9.84199 2.49511C10.2453 2.49511 10.6327 2.65396 10.9147 2.93703C11.1987 3.22271 11.356 3.60645 11.3553 4.00588V4.83613C11.352 4.93353 11.2727 5.01263 11.1733 5.01525H4.82666C4.72799 5.01198 4.64866 4.93288 4.6466 4.83613V4.00588C4.63933 3.17891 5.31666 2.5036 6.15933 2.49511H9.84199ZM11.4627 0.00019612C12.9274 0.00019612 14.1181 1.16776 14.1181 2.60402V3.84154C14.1181 4.1161 13.8914 4.33968 13.6107 4.33968C13.3307 4.33968 13.1034 4.1161 13.1034 3.84154V2.60402C13.1034 1.7169 12.3674 0.995179 11.4627 0.995179H10.4007C10.1207 0.995179 9.89339 0.772909 9.89339 0.498341C9.89339 0.223119 10.1207 0.00019612 10.4007 0.00019612H11.4627ZM5.61879 0C5.89879 0 6.12613 0.222923 6.12613 0.498145C6.12613 0.772713 5.89946 0.995636 5.61879 0.995636L4.53279 0.99629C3.63146 0.997598 2.89813 1.71736 2.89813 2.60186V3.84134C2.89813 4.11591 2.67013 4.33948 2.39013 4.33948C2.11013 4.33948 1.88279 4.11591 1.88279 3.84134V2.60186C1.88279 1.16888 3.07146 0.0019612 4.53213 0.000653734L5.61879 0Z" fill="#DADFDD"/>
</svg>
