<svg width="33" height="32" viewBox="0 0 33 32" fill="none" xmlns="http://www.w3.org/2000/svg">
<circle cx="16.667" cy="16" r="16" fill="#3EB7B7"/>
<rect width="21.25" height="20" transform="translate(5.66699 6)" fill="#3EB7B7"/>
<path d="M12.75 19.9583H10.4745C8.09271 19.9583 6.77344 18.725 6.77344 16.475V10.525C6.77344 8.28329 8.08385 7.04163 10.4745 7.04163H14.5208C16.9026 7.04163 18.2219 8.27496 18.2219 10.525C18.2219 10.8666 17.9208 11.15 17.5578 11.15C17.1948 11.15 16.8938 10.8666 16.8938 10.525C16.8938 8.95829 16.1854 8.29163 14.5208 8.29163H10.4745C8.8099 8.29163 8.10156 8.95829 8.10156 10.525V16.475C8.10156 18.0416 8.8099 18.7083 10.4745 18.7083H12.75C13.113 18.7083 13.4141 18.9916 13.4141 19.3333C13.4141 19.675 13.113 19.9583 12.75 19.9583Z" fill="#FAFAFA"/>
<path d="M22.1087 24.9583H18.0624C15.6806 24.9583 14.3613 23.725 14.3613 21.475V15.525C14.3613 13.2833 15.6717 12.0416 18.0624 12.0416H22.1087C24.4905 12.0416 25.8098 13.275 25.8098 15.525V21.475C25.8098 23.725 24.4993 24.9583 22.1087 24.9583ZM18.0624 13.2916C16.3978 13.2916 15.6895 13.9583 15.6895 15.525V21.475C15.6895 23.0416 16.3978 23.7083 18.0624 23.7083H22.1087C23.7733 23.7083 24.4816 23.0416 24.4816 21.475V15.525C24.4816 13.9583 23.7733 13.2916 22.1087 13.2916H18.0624Z" fill="#FAFAFA"/>
<path d="M21.7194 19.125H18.8418C18.4788 19.125 18.1777 18.8417 18.1777 18.5C18.1777 18.1583 18.4788 17.875 18.8418 17.875H21.7194C22.0824 17.875 22.3835 18.1583 22.3835 18.5C22.3835 18.8417 22.0824 19.125 21.7194 19.125Z" fill="#FAFAFA"/>
<path d="M20.2764 20.4834C19.9133 20.4834 19.6123 20.2 19.6123 19.8584V17.15C19.6123 16.8084 19.9133 16.525 20.2764 16.525C20.6394 16.525 20.9404 16.8084 20.9404 17.15V19.8584C20.9404 20.2 20.6394 20.4834 20.2764 20.4834Z" fill="#FAFAFA"/>
</svg>
