<svg width="16" height="16" viewBox="0 0 16 16" fill="none" xmlns="http://www.w3.org/2000/svg">
<path d="M11.2233 10.4268C11.67 10.1334 12.2567 10.4534 12.2567 10.9868V11.8468C12.2567 12.6934 11.5967 13.6001 10.8033 13.8668L8.67667 14.5734C8.30333 14.7001 7.69667 14.7001 7.33 14.5734L5.20333 13.8668C4.40333 13.6001 3.75 12.6934 3.75 11.8468V10.9801C3.75 10.4534 4.33667 10.1334 4.77667 10.4201L6.15 11.3134C6.67667 11.6668 7.34333 11.8401 8.01 11.8401C8.67667 11.8401 9.34333 11.6668 9.87 11.3134L11.2233 10.4268Z" fill="#DADFDD"/>
<path d="M13.3171 4.30703L9.32375 1.68703C8.60375 1.2137 7.41708 1.2137 6.69708 1.68703L2.68375 4.30703C1.39708 5.14036 1.39708 7.02703 2.68375 7.86703L3.75042 8.56036L6.69708 10.4804C7.41708 10.9537 8.60375 10.9537 9.32375 10.4804L12.2504 8.56036L13.1637 7.96036V10.0004C13.1637 10.2737 13.3904 10.5004 13.6637 10.5004C13.9371 10.5004 14.1637 10.2737 14.1637 10.0004V6.72036C14.4304 5.86036 14.1571 4.86036 13.3171 4.30703Z" fill="#DADFDD"/>
</svg>
