<svg width="15" height="15" viewBox="0 0 15 15" fill="none" xmlns="http://www.w3.org/2000/svg">
<path d="M10.394 0.833252C12.654 0.833252 14.1673 2.41992 14.1673 4.77992V10.2273C14.1673 12.5799 12.654 14.1666 10.394 14.1666H4.61398C2.35398 14.1666 0.833984 12.5799 0.833984 10.2273V4.77992C0.833984 2.41992 2.35398 0.833252 4.61398 0.833252H10.394ZM10.2873 5.49992C10.0607 5.27325 9.68732 5.27325 9.46065 5.49992L6.70732 8.25325L5.54065 7.08659C5.31398 6.85992 4.94065 6.85992 4.71398 7.08659C4.48732 7.31325 4.48732 7.67992 4.71398 7.91325L6.30065 9.49325C6.41398 9.60658 6.56065 9.65992 6.70732 9.65992C6.86065 9.65992 7.00732 9.60658 7.12065 9.49325L10.2873 6.32658C10.514 6.09992 10.514 5.73325 10.2873 5.49992Z" fill="#19201D"/>
</svg>
