<svg width="15" height="13" viewBox="0 0 15 13" fill="none" xmlns="http://www.w3.org/2000/svg">
<path d="M10.511 0.5C12.8103 0.5 14.1673 1.82306 14.1673 4.08787H11.3466V4.11098C10.0375 4.11098 8.97621 5.14566 8.97621 6.422C8.97621 7.69835 10.0375 8.73303 11.3466 8.73303H14.1673V8.94102C14.1673 11.1769 12.8103 12.5 10.511 12.5H4.49028C2.19102 12.5 0.833984 11.1769 0.833984 8.94102V4.05898C0.833984 1.82306 2.19102 0.5 4.49028 0.5H10.511ZM13.6695 5.08161C13.9445 5.08161 14.1673 5.29889 14.1673 5.56692V7.25397C14.1641 7.5207 13.9431 7.73617 13.6695 7.73929H11.3999C10.7372 7.74798 10.1576 7.30558 10.0073 6.67622C9.93204 6.28553 10.0377 5.88238 10.296 5.57481C10.5543 5.26725 10.9389 5.08672 11.3466 5.08161H13.6695ZM11.6666 5.86158H11.4473C11.3127 5.86004 11.1831 5.91109 11.0873 6.00336C10.9916 6.09562 10.9377 6.22142 10.9377 6.35267C10.9377 6.62804 11.1649 6.85216 11.4473 6.85532H11.6666C11.948 6.85532 12.1762 6.63286 12.1762 6.35845C12.1762 6.08404 11.948 5.86158 11.6666 5.86158ZM7.75547 3.09413H3.9925C3.71334 3.09411 3.48612 3.31306 3.48287 3.58522C3.48287 3.86058 3.71009 4.0847 3.9925 4.08787H7.75547C8.03693 4.08787 8.26509 3.86541 8.26509 3.591C8.26509 3.31658 8.03693 3.09413 7.75547 3.09413Z" fill="#19201D"/>
</svg>
